<svg width="1920" height="1080" viewBox="0 0 1920 1080" fill="none" xmlns="http://www.w3.org/2000/svg">
<g clip-path="url(#clip0_286_44)">
<rect width="1920" height="1080" fill="#E8E5DD"/>
<path d="M-383.195 305.211L-181.887 478.954H-81.233L67.6512 305.211L201.857 386.849L403.165 332.424L382.195 633.857H516.401L556.243 828.532L463.977 1044.14L650.606 1123.68L724 1674.22H327.674L275.25 1808.19H-14.1302L-148.336 1713.99L-456.589 1854.24L-557.243 1753.76V1492.1L-657.897 1351.85L-557.243 1123.68V895.517L-725 828.532V478.954L-383.195 305.211Z" stroke="#8B8982" stroke-opacity="0.2" stroke-width="3"/>
<path d="M-76.2383 1015.44L-39.8331 996.844H8.1861L41.6879 1032.01L50.3983 1075.92L70.276 1084.43L78.0931 1143.34H35.8809L-14.8184 1147.6L-47.6501 1162.61L-58.3707 1151.86V1123.85V1060.01L-76.2383 1052.85V1015.44Z" stroke="#8B8982" stroke-opacity="0.2" stroke-width="3"/>
<path d="M-358.184 358.413L-170.961 518.076H-74.356L64.3641 359.051L189.535 435.761L375.693 387.211L356.671 667.146L482.082 667.8L519.16 849.767L434.292 1051.06L604.942 1124.48L671.066 1632.67L303.277 1632.83L252.936 1756.66L-16.7101 1757.81L-141.004 1670.45L-425.958 1799.5L-518.87 1705.67V1463.06L-611.781 1328.69L-519.557 1117.8L-520.244 906.903L-675.097 843.632V519.506L-358.184 358.413Z" stroke="#8B8982" stroke-opacity="0.2" stroke-width="3"/>
<path d="M-333.168 411.617L-160.03 557.199H-67.4733L61.0828 412.892L177.218 484.675L348.226 442L331.153 700.436L447.769 701.746L482.083 871.003L404.613 1057.97L559.283 1125.28L618.138 1591.12L278.886 1591.44L230.627 1705.13L-19.2842 1707.44L-133.667 1626.91L-395.322 1744.75L-480.491 1657.58V1434.02L-565.659 1305.52L-481.865 1111.91L-483.239 918.292L-625.188 858.734V560.06L-333.168 411.617Z" stroke="#8B8982" stroke-opacity="0.2" stroke-width="3"/>
<path d="M-308.158 464.819L-149.105 596.322H-60.5972L57.7947 466.732L164.895 533.588L320.753 496.788L305.627 733.726L413.45 735.69L444.999 892.238L374.927 1064.89L513.618 1126.08L565.204 1549.56L254.488 1550.05L208.312 1653.6L-21.865 1657.06L-126.337 1583.36L-364.692 1690.01L-442.118 1609.49V1404.98L-519.544 1282.36L-444.18 1106.02L-446.241 929.678L-575.285 873.835V600.612L-308.158 464.819Z" stroke="#8B8982" stroke-opacity="0.2" stroke-width="3"/>
<path d="M-283.147 518.021L-138.179 635.444H-53.7202L54.5076 520.571L152.573 582.5L293.281 551.576L280.103 767.015L379.131 769.634L407.917 913.473L345.243 1071.8L467.953 1126.87L512.27 1508.01L230.091 1508.67L185.998 1602.07L-24.4449 1606.69L-119.006 1539.82L-334.061 1635.26L-403.745 1561.39V1375.94L-473.428 1259.2L-406.494 1100.13L-409.242 941.065L-525.382 888.936V641.165L-283.147 518.021Z" stroke="#8B8982" stroke-opacity="0.2" stroke-width="3"/>
<path d="M-258.131 571.225L-127.248 674.568H-46.8385L51.2252 574.412L140.256 631.414L265.813 606.365L254.584 800.305L344.817 803.579L370.839 934.709L315.563 1078.72L422.294 1127.67L459.341 1466.46L205.699 1467.28L163.688 1550.54L-27.0199 1556.31L-111.67 1496.28L-303.425 1580.52L-365.366 1513.3V1346.89L-427.307 1236.03L-368.803 1094.24L-372.239 952.453L-475.474 904.038V681.718L-258.131 571.225Z" stroke="#8B8982" stroke-opacity="0.2" stroke-width="3"/>
<path d="M-233.12 624.427L-116.323 713.69H-39.9615L47.9382 628.252L127.934 680.327L238.341 661.153L229.059 833.594L310.498 837.523L333.756 955.944L285.878 1085.64L376.629 1128.47L406.408 1424.91L181.302 1425.89L141.374 1499.01L-29.5998 1505.94L-104.338 1452.73L-272.795 1525.77L-326.993 1465.21V1317.85L-381.191 1212.87L-331.116 1088.35L-335.24 963.84L-425.57 919.138V722.271L-233.12 624.427Z" stroke="#8B8982" stroke-opacity="0.2" stroke-width="3"/>
<path d="M-208.11 677.629L-105.397 752.812H-33.0844L44.6511 682.091L115.612 729.239L210.868 715.94L203.535 866.884L276.18 871.467L296.673 977.178L256.193 1092.55L330.965 1129.26L353.474 1383.36L156.905 1384.5L119.059 1447.48L-32.1796 1455.56L-97.0069 1409.19L-242.164 1471.03L-288.62 1417.11V1288.81L-335.075 1189.7L-293.43 1082.46L-298.241 975.226L-375.667 934.238V762.823L-208.11 677.629Z" stroke="#8B8982" stroke-opacity="0.2" stroke-width="3"/>
<path d="M-183.094 730.831L-94.466 791.934H-26.2026L41.3688 735.931L103.295 778.152L183.401 770.728L178.016 900.173L241.866 905.411L259.595 998.413L226.513 1099.47L285.305 1130.06L300.545 1341.8L132.513 1343.11L96.7498 1395.95L-34.7546 1405.19L-89.6707 1365.65L-211.528 1416.28L-250.241 1369.02V1259.77L-288.955 1166.54L-255.739 1076.58L-261.237 986.613L-325.759 949.339V803.376L-183.094 730.831Z" stroke="#8B8982" stroke-opacity="0.2" stroke-width="3"/>
<path d="M-158.083 784.034L-83.5402 831.058H-19.3257L38.0816 789.772L90.9724 827.066L155.929 825.517L152.492 933.464L207.547 939.357L222.512 1019.65L196.828 1106.38L239.641 1130.86L247.612 1300.25L108.116 1301.73L74.4353 1344.42L-37.3345 1354.81L-82.3395 1322.11L-180.898 1361.54L-211.868 1320.93V1230.73L-242.839 1143.37L-218.053 1070.69L-224.238 998.001L-275.855 964.441V843.93L-158.083 784.034Z" stroke="#8B8982" stroke-opacity="0.2" stroke-width="3"/>
<path d="M-133.071 837.236L-72.6134 870.18H-12.4477L34.7955 843.612L78.6512 875.978L128.457 880.305L126.968 966.753L173.229 973.3L185.43 1040.88L167.145 1113.3L193.977 1131.66L194.679 1258.7L83.7195 1260.34L52.1219 1292.89L-39.9134 1304.44L-75.0072 1278.56L-150.266 1306.79L-173.494 1272.84V1201.68L-196.722 1120.21L-180.366 1064.8L-187.238 1009.39L-225.951 979.542V884.482L-133.071 837.236Z" stroke="#8B8982" stroke-opacity="0.2" stroke-width="3"/>
<path d="M-108.056 890.438L-61.6837 909.302H-5.56685L31.5122 897.452L66.333 924.89L100.989 935.092L101.448 1000.04L138.914 1007.24L148.351 1062.12L137.464 1120.21L148.317 1132.45L141.749 1217.15L59.3263 1218.95L29.8114 1241.36L-42.4894 1254.06L-67.672 1235.02L-119.631 1252.05L-135.116 1224.74V1172.64L-150.602 1097.05L-142.676 1058.91L-150.235 1020.77L-176.044 994.642V925.034L-108.056 890.438Z" stroke="#8B8982" stroke-opacity="0.2" stroke-width="3"/>
<path d="M-83.0456 943.642L-50.7579 948.426H1.31011L28.2251 951.293L54.0109 973.804L73.5164 989.881L75.9236 1033.33L104.596 1041.19L111.268 1083.36L107.779 1127.13L102.652 1133.25L88.8155 1175.6L34.9293 1177.56L7.49696 1189.83L-45.0693 1203.69L-60.3407 1191.48L-89.0005 1197.3L-96.7431 1176.65V1143.6L-104.486 1073.88L-104.99 1053.02L-113.236 1032.16L-126.141 1009.74V965.588L-83.0456 943.642Z" stroke="#8B8982" stroke-opacity="0.2" stroke-width="3"/>
<path d="M673.381 448.5V399.045H689.439C692.433 399.045 694.961 399.577 697.022 400.639C699.082 401.702 700.644 403.191 701.706 405.107C702.785 407.022 703.324 409.252 703.324 411.795C703.324 413.792 703.002 415.562 702.358 417.108C701.714 418.653 700.813 419.933 699.654 420.947C698.511 421.946 697.166 422.638 695.621 423.024V423.314C697.327 423.443 698.913 424.038 700.378 425.101C701.843 426.147 703.018 427.572 703.904 429.375C704.805 431.178 705.256 433.279 705.256 435.678C705.256 438.205 704.709 440.435 703.614 442.366C702.535 444.282 700.917 445.787 698.76 446.882C696.603 447.961 693.931 448.5 690.743 448.5H673.381ZM676.399 445.699H690.743C694.462 445.699 697.319 444.765 699.316 442.898C701.328 441.03 702.334 438.624 702.334 435.678C702.334 433.601 701.843 431.741 700.861 430.099C699.895 428.457 698.551 427.161 696.828 426.212C695.106 425.246 693.11 424.763 690.84 424.763H676.399V445.699ZM676.399 422.01H690.478C692.586 422.01 694.373 421.551 695.838 420.634C697.319 419.716 698.446 418.484 699.219 416.939C700.008 415.393 700.402 413.679 700.402 411.795C700.402 408.737 699.452 406.314 697.553 404.527C695.653 402.74 692.949 401.847 689.439 401.847H676.399V422.01ZM727.509 449.273C724.16 449.273 721.246 448.444 718.767 446.786C716.288 445.127 714.372 442.857 713.02 439.976C711.668 437.094 710.992 433.81 710.992 430.124C710.992 426.421 711.668 423.121 713.02 420.223C714.389 417.325 716.264 415.039 718.647 413.365C721.029 411.691 723.75 410.854 726.809 410.854C728.885 410.854 730.849 411.272 732.701 412.109C734.568 412.93 736.21 414.122 737.627 415.683C739.059 417.245 740.178 419.128 740.983 421.334C741.804 423.539 742.215 426.018 742.215 428.771V430.607H712.851V427.926H739.269C739.269 425.238 738.721 422.815 737.627 420.658C736.532 418.5 735.043 416.786 733.159 415.514C731.276 414.242 729.159 413.607 726.809 413.607C724.345 413.607 722.148 414.299 720.216 415.683C718.3 417.052 716.779 418.903 715.652 421.237C714.541 423.571 713.962 426.179 713.914 429.061V430.268C713.914 433.359 714.453 436.136 715.532 438.599C716.626 441.046 718.188 442.986 720.216 444.419C722.245 445.836 724.675 446.544 727.509 446.544C729.537 446.544 731.268 446.206 732.701 445.53C734.149 444.838 735.333 444 736.25 443.018C737.168 442.036 737.86 441.087 738.327 440.169L741.007 441.256C740.444 442.495 739.567 443.735 738.375 444.974C737.2 446.198 735.703 447.22 733.884 448.041C732.081 448.862 729.956 449.273 727.509 449.273ZM774.61 448.5L761.015 399.045H764.154L776.228 443.839H776.518L788.399 399.045H792.069L803.95 443.839H804.24L816.314 399.045H819.429L805.833 448.5H802.356L790.355 403.996H790.089L778.088 448.5H774.61ZM835.27 449.273C831.922 449.273 829.008 448.444 826.529 446.786C824.05 445.127 822.134 442.857 820.782 439.976C819.429 437.094 818.753 433.81 818.753 430.124C818.753 426.421 819.429 423.121 820.782 420.223C822.15 417.325 824.025 415.039 826.408 413.365C828.791 411.691 831.511 410.854 834.57 410.854C836.647 410.854 838.611 411.272 840.462 412.109C842.329 412.93 843.971 414.122 845.388 415.683C846.821 417.245 847.94 419.128 848.745 421.334C849.566 423.539 849.976 426.018 849.976 428.771V430.607H820.613V427.926H847.03C847.03 425.238 846.483 422.815 845.388 420.658C844.293 418.5 842.804 416.786 840.921 415.514C839.037 414.242 836.92 413.607 834.57 413.607C832.107 413.607 829.909 414.299 827.978 415.683C826.062 417.052 824.541 418.903 823.414 421.237C822.303 423.571 821.723 426.179 821.675 429.061V430.268C821.675 433.359 822.214 436.136 823.293 438.599C824.388 441.046 825.949 442.986 827.978 444.419C830.006 445.836 832.437 446.544 835.27 446.544C837.299 446.544 839.029 446.206 840.462 445.53C841.911 444.838 843.094 444 844.012 443.018C844.929 442.036 845.622 441.087 846.088 440.169L848.769 441.256C848.205 442.495 847.328 443.735 846.137 444.974C844.961 446.198 843.464 447.22 841.645 448.041C839.842 448.862 837.717 449.273 835.27 449.273ZM860.004 399.045V448.5H857.058V399.045H860.004ZM883.048 449.273C879.893 449.273 877.116 448.444 874.717 446.786C872.318 445.111 870.443 442.825 869.091 439.928C867.754 437.03 867.086 433.746 867.086 430.075C867.086 426.405 867.762 423.121 869.115 420.223C870.467 417.325 872.342 415.039 874.741 413.365C877.14 411.691 879.901 410.854 883.024 410.854C885.374 410.854 887.515 411.337 889.447 412.303C891.395 413.268 893.005 414.613 894.277 416.335C895.565 418.058 896.386 420.054 896.74 422.324H893.745C893.262 419.812 892.055 417.736 890.123 416.094C888.207 414.436 885.849 413.607 883.048 413.607C880.537 413.607 878.299 414.315 876.335 415.732C874.371 417.132 872.825 419.072 871.698 421.551C870.572 424.014 870.008 426.839 870.008 430.027C870.008 433.166 870.556 435.983 871.65 438.479C872.745 440.958 874.274 442.922 876.238 444.371C878.202 445.82 880.472 446.544 883.048 446.544C884.867 446.544 886.525 446.182 888.022 445.457C889.536 444.733 890.799 443.703 891.814 442.366C892.828 441.03 893.496 439.469 893.818 437.682H896.812C896.458 439.968 895.653 441.98 894.397 443.719C893.142 445.457 891.54 446.818 889.592 447.8C887.644 448.782 885.463 449.273 883.048 449.273ZM917.586 449.273C914.527 449.273 911.807 448.452 909.424 446.81C907.041 445.152 905.166 442.874 903.798 439.976C902.429 437.078 901.745 433.778 901.745 430.075C901.745 426.357 902.429 423.056 903.798 420.175C905.166 417.277 907.041 414.999 909.424 413.341C911.807 411.683 914.527 410.854 917.586 410.854C920.645 410.854 923.365 411.683 925.748 413.341C928.13 414.999 930.006 417.277 931.374 420.175C932.743 423.072 933.427 426.373 933.427 430.075C933.427 433.778 932.743 437.078 931.374 439.976C930.006 442.874 928.13 445.152 925.748 446.81C923.365 448.452 920.645 449.273 917.586 449.273ZM917.586 446.544C920.178 446.544 922.44 445.812 924.371 444.347C926.319 442.882 927.825 440.902 928.887 438.406C929.966 435.911 930.505 433.134 930.505 430.075C930.505 427.017 929.966 424.248 928.887 421.768C927.808 419.273 926.303 417.293 924.371 415.828C922.44 414.347 920.178 413.607 917.586 413.607C914.994 413.607 912.732 414.347 910.8 415.828C908.869 417.293 907.363 419.273 906.285 421.768C905.206 424.248 904.667 427.017 904.667 430.075C904.667 433.134 905.198 435.911 906.261 438.406C907.339 440.902 908.844 442.882 910.776 444.347C912.724 445.812 914.994 446.544 917.586 446.544ZM940.515 448.5V411.409H943.389V417.011H943.678C944.387 415.144 945.61 413.663 947.349 412.568C949.087 411.473 951.18 410.926 953.627 410.926C956.316 410.926 958.481 411.57 960.123 412.858C961.781 414.146 962.972 415.893 963.697 418.098H963.962C964.687 415.925 965.983 414.186 967.85 412.882C969.734 411.578 972.052 410.926 974.805 410.926C978.395 410.926 981.131 412.061 983.015 414.331C984.915 416.585 985.864 419.676 985.864 423.604V448.5H982.918V423.604C982.918 420.513 982.178 418.082 980.697 416.311C979.216 414.54 977.042 413.655 974.177 413.655C971.118 413.655 968.768 414.613 967.126 416.528C965.484 418.444 964.663 420.883 964.663 423.845V448.5H961.717V423.411C961.717 420.529 960.992 418.187 959.543 416.384C958.094 414.564 955.921 413.655 953.023 413.655C951.059 413.655 949.361 414.106 947.928 415.007C946.512 415.909 945.409 417.148 944.62 418.726C943.847 420.304 943.461 422.115 943.461 424.159V448.5H940.515ZM1009.49 449.273C1006.15 449.273 1003.23 448.444 1000.75 446.786C998.273 445.127 996.357 442.857 995.005 439.976C993.653 437.094 992.977 433.81 992.977 430.124C992.977 426.421 993.653 423.121 995.005 420.223C996.373 417.325 998.249 415.039 1000.63 413.365C1003.01 411.691 1005.73 410.854 1008.79 410.854C1010.87 410.854 1012.83 411.272 1014.69 412.109C1016.55 412.93 1018.19 414.122 1019.61 415.683C1021.04 417.245 1022.16 419.128 1022.97 421.334C1023.79 423.539 1024.2 426.018 1024.2 428.771V430.607H994.836V427.926H1021.25C1021.25 425.238 1020.71 422.815 1019.61 420.658C1018.52 418.5 1017.03 416.786 1015.14 415.514C1013.26 414.242 1011.14 413.607 1008.79 413.607C1006.33 413.607 1004.13 414.299 1002.2 415.683C1000.29 417.052 998.764 418.903 997.637 421.237C996.526 423.571 995.947 426.179 995.898 429.061V430.268C995.898 433.359 996.438 436.136 997.516 438.599C998.611 441.046 1000.17 442.986 1002.2 444.419C1004.23 445.836 1006.66 446.544 1009.49 446.544C1011.52 446.544 1013.25 446.206 1014.69 445.53C1016.13 444.838 1017.32 444 1018.24 443.018C1019.15 442.036 1019.84 441.087 1020.31 440.169L1022.99 441.256C1022.43 442.495 1021.55 443.735 1020.36 444.974C1019.18 446.198 1017.69 447.22 1015.87 448.041C1014.07 448.862 1011.94 449.273 1009.49 449.273ZM1056.6 448.5L1043 399.045H1046.14L1058.21 443.839H1058.5L1070.38 399.045H1074.05L1085.93 443.839H1086.22L1098.3 399.045H1101.41L1087.82 448.5H1084.34L1072.34 403.996H1072.07L1060.07 448.5H1056.6ZM1116.58 449.273C1113.52 449.273 1110.8 448.452 1108.42 446.81C1106.03 445.152 1104.16 442.874 1102.79 439.976C1101.42 437.078 1100.74 433.778 1100.74 430.075C1100.74 426.357 1101.42 423.056 1102.79 420.175C1104.16 417.277 1106.03 414.999 1108.42 413.341C1110.8 411.683 1113.52 410.854 1116.58 410.854C1119.64 410.854 1122.36 411.683 1124.74 413.341C1127.12 414.999 1129 417.277 1130.37 420.175C1131.74 423.072 1132.42 426.373 1132.42 430.075C1132.42 433.778 1131.74 437.078 1130.37 439.976C1129 442.874 1127.12 445.152 1124.74 446.81C1122.36 448.452 1119.64 449.273 1116.58 449.273ZM1116.58 446.544C1119.17 446.544 1121.43 445.812 1123.36 444.347C1125.31 442.882 1126.82 440.902 1127.88 438.406C1128.96 435.911 1129.5 433.134 1129.5 430.075C1129.5 427.017 1128.96 424.248 1127.88 421.768C1126.8 419.273 1125.3 417.293 1123.36 415.828C1121.43 414.347 1119.17 413.607 1116.58 413.607C1113.99 413.607 1111.73 414.347 1109.79 415.828C1107.86 417.293 1106.36 419.273 1105.28 421.768C1104.2 424.248 1103.66 427.017 1103.66 430.075C1103.66 433.134 1104.19 435.911 1105.25 438.406C1106.33 440.902 1107.84 442.882 1109.77 444.347C1111.72 445.812 1113.99 446.544 1116.58 446.544ZM1139.51 448.5V411.409H1142.38V417.205H1142.65C1143.45 415.305 1144.81 413.784 1146.73 412.641C1148.64 411.482 1150.83 410.902 1153.27 410.902C1153.53 410.902 1153.79 410.902 1154.04 410.902C1154.3 410.902 1154.54 410.91 1154.77 410.926V413.896C1154.58 413.88 1154.34 413.856 1154.07 413.824C1153.81 413.776 1153.49 413.751 1153.1 413.751C1151.04 413.751 1149.21 414.194 1147.6 415.08C1146 415.965 1144.75 417.188 1143.83 418.75C1142.91 420.295 1142.45 422.066 1142.45 424.062V448.5H1139.51ZM1162.57 399.045V448.5H1159.62V399.045H1162.57ZM1184.43 449.273C1181.45 449.273 1178.85 448.452 1176.63 446.81C1174.41 445.168 1172.69 442.906 1171.46 440.024C1170.26 437.126 1169.65 433.802 1169.65 430.051C1169.65 426.332 1170.26 423.032 1171.49 420.151C1172.73 417.253 1174.46 414.983 1176.68 413.341C1178.9 411.683 1181.49 410.854 1184.45 410.854C1186.58 410.854 1188.42 411.264 1189.98 412.085C1191.56 412.89 1192.88 413.961 1193.94 415.297C1195.02 416.633 1195.84 418.098 1196.41 419.692H1196.7V399.045H1199.62V448.5H1196.77V440.411H1196.41C1195.81 442.004 1194.98 443.477 1193.92 444.83C1192.86 446.166 1191.54 447.244 1189.96 448.065C1188.38 448.87 1186.54 449.273 1184.43 449.273ZM1184.7 446.544C1187.21 446.544 1189.36 445.828 1191.14 444.395C1192.95 442.946 1194.32 440.982 1195.27 438.503C1196.24 436.008 1196.72 433.182 1196.72 430.027C1196.72 426.872 1196.24 424.062 1195.27 421.599C1194.32 419.12 1192.95 417.172 1191.14 415.756C1189.36 414.323 1187.21 413.607 1184.7 413.607C1182.15 413.607 1179.97 414.331 1178.15 415.78C1176.35 417.213 1174.96 419.169 1174 421.648C1173.05 424.127 1172.57 426.92 1172.57 430.027C1172.57 433.134 1173.05 435.935 1174 438.43C1174.96 440.926 1176.35 442.906 1178.15 444.371C1179.97 445.82 1182.15 446.544 1184.7 446.544Z" fill="#1D1C1A"/>
<path d="M657.068 530.5V481.045H674.358C677.803 481.045 680.644 481.641 682.882 482.832C685.12 484.008 686.786 485.593 687.88 487.589C688.975 489.57 689.522 491.767 689.522 494.182C689.522 496.307 689.144 498.062 688.388 499.446C687.647 500.83 686.665 501.925 685.442 502.73C684.234 503.535 682.922 504.131 681.505 504.517V505C683.019 505.097 684.54 505.628 686.069 506.594C687.599 507.56 688.879 508.944 689.909 510.747C690.939 512.55 691.454 514.756 691.454 517.364C691.454 519.843 690.891 522.072 689.764 524.053C688.637 526.033 686.858 527.602 684.427 528.761C681.996 529.92 678.833 530.5 674.937 530.5H657.068ZM663.057 525.188H674.937C678.849 525.188 681.626 524.431 683.268 522.918C684.926 521.388 685.755 519.537 685.755 517.364C685.755 515.689 685.329 514.144 684.476 512.727C683.622 511.295 682.407 510.152 680.829 509.298C679.252 508.429 677.384 507.994 675.227 507.994H663.057V525.188ZM663.057 502.778H674.165C675.968 502.778 677.593 502.424 679.042 501.716C680.507 501.008 681.666 500.009 682.52 498.722C683.389 497.434 683.824 495.92 683.824 494.182C683.824 492.009 683.067 490.165 681.554 488.652C680.04 487.123 677.642 486.358 674.358 486.358H663.057V502.778ZM714.033 531.273C710.459 531.273 707.376 530.484 704.784 528.906C702.209 527.312 700.22 525.091 698.82 522.241C697.435 519.376 696.743 516.044 696.743 512.244C696.743 508.445 697.435 505.097 698.82 502.199C700.22 499.285 702.168 497.015 704.664 495.389C707.175 493.747 710.105 492.926 713.453 492.926C715.385 492.926 717.293 493.248 719.176 493.892C721.06 494.536 722.774 495.582 724.32 497.031C725.865 498.464 727.097 500.364 728.014 502.73C728.932 505.097 729.391 508.01 729.391 511.472V513.886H700.8V508.96H723.595C723.595 506.867 723.177 505 722.34 503.358C721.519 501.716 720.343 500.42 718.814 499.47C717.301 498.52 715.514 498.045 713.453 498.045C711.183 498.045 709.219 498.609 707.561 499.736C705.919 500.847 704.656 502.295 703.77 504.082C702.885 505.869 702.442 507.785 702.442 509.83V513.114C702.442 515.915 702.925 518.289 703.891 520.237C704.873 522.169 706.233 523.642 707.972 524.656C709.71 525.654 711.731 526.153 714.033 526.153C715.53 526.153 716.882 525.944 718.09 525.526C719.313 525.091 720.368 524.447 721.253 523.594C722.138 522.724 722.823 521.646 723.306 520.358L728.811 521.903C728.232 523.771 727.258 525.413 725.889 526.83C724.521 528.23 722.831 529.325 720.818 530.114C718.806 530.886 716.544 531.273 714.033 531.273ZM762.861 530.5L749.338 481.045H755.423L765.758 521.324H766.241L776.77 481.045H783.531L794.059 521.324H794.542L804.878 481.045H810.963L797.44 530.5H791.258L780.344 491.091H779.957L769.042 530.5H762.861ZM827.71 531.273C824.136 531.273 821.053 530.484 818.461 528.906C815.885 527.312 813.897 525.091 812.497 522.241C811.112 519.376 810.42 516.044 810.42 512.244C810.42 508.445 811.112 505.097 812.497 502.199C813.897 499.285 815.845 497.015 818.34 495.389C820.852 493.747 823.782 492.926 827.13 492.926C829.062 492.926 830.97 493.248 832.853 493.892C834.737 494.536 836.451 495.582 837.997 497.031C839.542 498.464 840.774 500.364 841.691 502.73C842.609 505.097 843.068 508.01 843.068 511.472V513.886H814.477V508.96H837.272C837.272 506.867 836.854 505 836.017 503.358C835.196 501.716 834.02 500.42 832.491 499.47C830.978 498.52 829.191 498.045 827.13 498.045C824.86 498.045 822.896 498.609 821.238 499.736C819.596 500.847 818.332 502.295 817.447 504.082C816.562 505.869 816.119 507.785 816.119 509.83V513.114C816.119 515.915 816.602 518.289 817.568 520.237C818.55 522.169 819.91 523.642 821.649 524.656C823.387 525.654 825.408 526.153 827.71 526.153C829.207 526.153 830.559 525.944 831.767 525.526C832.99 525.091 834.045 524.447 834.93 523.594C835.815 522.724 836.5 521.646 836.982 520.358L842.488 521.903C841.909 523.771 840.935 525.413 839.566 526.83C838.198 528.23 836.508 529.325 834.495 530.114C832.483 530.886 830.221 531.273 827.71 531.273ZM855.396 481.045V530.5H849.697V481.045H855.396ZM878.862 531.273C875.384 531.273 872.39 530.452 869.879 528.81C867.367 527.168 865.436 524.906 864.083 522.024C862.731 519.143 862.055 515.85 862.055 512.148C862.055 508.381 862.747 505.056 864.132 502.175C865.532 499.277 867.48 497.015 869.975 495.389C872.487 493.747 875.417 492.926 878.765 492.926C881.373 492.926 883.723 493.409 885.816 494.375C887.909 495.341 889.623 496.693 890.96 498.432C892.296 500.17 893.125 502.199 893.447 504.517H887.748C887.313 502.827 886.347 501.33 884.85 500.026C883.369 498.705 881.373 498.045 878.862 498.045C876.64 498.045 874.692 498.625 873.018 499.784C871.36 500.927 870.064 502.545 869.13 504.638C868.213 506.714 867.754 509.153 867.754 511.955C867.754 514.82 868.204 517.315 869.106 519.44C870.024 521.565 871.311 523.215 872.97 524.391C874.644 525.566 876.608 526.153 878.862 526.153C880.343 526.153 881.687 525.896 882.894 525.381C884.102 524.866 885.124 524.125 885.961 523.159C886.798 522.193 887.394 521.034 887.748 519.682H893.447C893.125 521.871 892.328 523.843 891.056 525.598C889.801 527.337 888.134 528.721 886.058 529.751C883.997 530.766 881.598 531.273 878.862 531.273ZM914.806 531.273C911.458 531.273 908.52 530.476 905.992 528.882C903.481 527.288 901.517 525.059 900.1 522.193C898.699 519.328 897.999 515.979 897.999 512.148C897.999 508.284 898.699 504.911 900.1 502.03C901.517 499.148 903.481 496.911 905.992 495.317C908.52 493.723 911.458 492.926 914.806 492.926C918.155 492.926 921.084 493.723 923.596 495.317C926.123 496.911 928.087 499.148 929.488 502.03C930.905 504.911 931.613 508.284 931.613 512.148C931.613 515.979 930.905 519.328 929.488 522.193C928.087 525.059 926.123 527.288 923.596 528.882C921.084 530.476 918.155 531.273 914.806 531.273ZM914.806 526.153C917.35 526.153 919.442 525.501 921.084 524.197C922.726 522.893 923.942 521.179 924.731 519.054C925.52 516.929 925.914 514.627 925.914 512.148C925.914 509.669 925.52 507.358 924.731 505.217C923.942 503.076 922.726 501.346 921.084 500.026C919.442 498.705 917.35 498.045 914.806 498.045C912.262 498.045 910.17 498.705 908.528 500.026C906.886 501.346 905.67 503.076 904.881 505.217C904.092 507.358 903.698 509.669 903.698 512.148C903.698 514.627 904.092 516.929 904.881 519.054C905.67 521.179 906.886 522.893 908.528 524.197C910.17 525.501 912.262 526.153 914.806 526.153ZM938.272 530.5V493.409H943.778V499.205H944.261C945.033 497.224 946.281 495.687 948.004 494.592C949.726 493.482 951.795 492.926 954.21 492.926C956.657 492.926 958.693 493.482 960.319 494.592C961.961 495.687 963.241 497.224 964.158 499.205H964.545C965.495 497.289 966.919 495.768 968.819 494.641C970.719 493.498 972.996 492.926 975.653 492.926C978.969 492.926 981.682 493.964 983.791 496.041C985.899 498.102 986.954 501.313 986.954 505.676V530.5H981.255V505.676C981.255 502.939 980.506 500.983 979.009 499.808C977.512 498.633 975.749 498.045 973.721 498.045C971.113 498.045 969.093 498.834 967.66 500.412C966.227 501.973 965.511 503.954 965.511 506.352V530.5H959.715V505.097C959.715 502.988 959.031 501.289 957.663 500.001C956.294 498.697 954.532 498.045 952.374 498.045C950.893 498.045 949.509 498.44 948.221 499.229C946.949 500.018 945.919 501.112 945.13 502.513C944.357 503.897 943.971 505.499 943.971 507.318V530.5H938.272ZM1010.88 531.273C1007.31 531.273 1004.23 530.484 1001.64 528.906C999.06 527.312 997.072 525.091 995.672 522.241C994.287 519.376 993.595 516.044 993.595 512.244C993.595 508.445 994.287 505.097 995.672 502.199C997.072 499.285 999.02 497.015 1001.52 495.389C1004.03 493.747 1006.96 492.926 1010.31 492.926C1012.24 492.926 1014.14 493.248 1016.03 493.892C1017.91 494.536 1019.63 495.582 1021.17 497.031C1022.72 498.464 1023.95 500.364 1024.87 502.73C1025.78 505.097 1026.24 508.01 1026.24 511.472V513.886H997.652V508.96H1020.45C1020.45 506.867 1020.03 505 1019.19 503.358C1018.37 501.716 1017.2 500.42 1015.67 499.47C1014.15 498.52 1012.37 498.045 1010.31 498.045C1008.04 498.045 1006.07 498.609 1004.41 499.736C1002.77 500.847 1001.51 502.295 1000.62 504.082C999.737 505.869 999.294 507.785 999.294 509.83V513.114C999.294 515.915 999.777 518.289 1000.74 520.237C1001.72 522.169 1003.09 523.642 1004.82 524.656C1006.56 525.654 1008.58 526.153 1010.88 526.153C1012.38 526.153 1013.73 525.944 1014.94 525.526C1016.17 525.091 1017.22 524.447 1018.1 523.594C1018.99 522.724 1019.67 521.646 1020.16 520.358L1025.66 521.903C1025.08 523.771 1024.11 525.413 1022.74 526.83C1021.37 528.23 1019.68 529.325 1017.67 530.114C1015.66 530.886 1013.4 531.273 1010.88 531.273ZM1059.71 530.5L1046.19 481.045H1052.27L1062.61 521.324H1063.09L1073.62 481.045H1080.38L1090.91 521.324H1091.39L1101.73 481.045H1107.81L1094.29 530.5H1088.11L1077.2 491.091H1076.81L1065.89 530.5H1059.71ZM1124.08 531.273C1120.73 531.273 1117.79 530.476 1115.26 528.882C1112.75 527.288 1110.79 525.059 1109.37 522.193C1107.97 519.328 1107.27 515.979 1107.27 512.148C1107.27 508.284 1107.97 504.911 1109.37 502.03C1110.79 499.148 1112.75 496.911 1115.26 495.317C1117.79 493.723 1120.73 492.926 1124.08 492.926C1127.43 492.926 1130.36 493.723 1132.87 495.317C1135.4 496.911 1137.36 499.148 1138.76 502.03C1140.18 504.911 1140.89 508.284 1140.89 512.148C1140.89 515.979 1140.18 519.328 1138.76 522.193C1137.36 525.059 1135.4 527.288 1132.87 528.882C1130.36 530.476 1127.43 531.273 1124.08 531.273ZM1124.08 526.153C1126.62 526.153 1128.72 525.501 1130.36 524.197C1132 522.893 1133.21 521.179 1134 519.054C1134.79 516.929 1135.19 514.627 1135.19 512.148C1135.19 509.669 1134.79 507.358 1134 505.217C1133.21 503.076 1132 501.346 1130.36 500.026C1128.72 498.705 1126.62 498.045 1124.08 498.045C1121.54 498.045 1119.44 498.705 1117.8 500.026C1116.16 501.346 1114.94 503.076 1114.15 505.217C1113.37 507.358 1112.97 509.669 1112.97 512.148C1112.97 514.627 1113.37 516.929 1114.15 519.054C1114.94 521.179 1116.16 522.893 1117.8 524.197C1119.44 525.501 1121.54 526.153 1124.08 526.153ZM1147.54 530.5V493.409H1153.05V499.011H1153.44C1154.11 497.176 1155.34 495.687 1157.11 494.544C1158.88 493.401 1160.87 492.83 1163.1 492.83C1163.51 492.83 1164.04 492.838 1164.67 492.854C1165.29 492.87 1165.77 492.894 1166.09 492.926V498.722C1165.9 498.673 1165.45 498.601 1164.76 498.504C1164.09 498.392 1163.37 498.335 1162.61 498.335C1160.81 498.335 1159.2 498.714 1157.78 499.47C1156.38 500.211 1155.27 501.241 1154.45 502.561C1153.65 503.865 1153.24 505.354 1153.24 507.028V530.5H1147.54ZM1176.5 481.045V530.5H1170.81V481.045H1176.5ZM1198.91 531.273C1195.82 531.273 1193.09 530.492 1190.72 528.93C1188.36 527.353 1186.5 525.131 1185.17 522.266C1183.83 519.384 1183.16 515.979 1183.16 512.051C1183.16 508.155 1183.83 504.775 1185.17 501.909C1186.5 499.044 1188.36 496.83 1190.75 495.268C1193.13 493.707 1195.88 492.926 1199 492.926C1201.42 492.926 1203.33 493.329 1204.73 494.134C1206.14 494.922 1207.22 495.824 1207.96 496.838C1208.72 497.836 1209.31 498.657 1209.73 499.301H1210.21V481.045H1215.91V530.5H1210.4V524.801H1209.73C1209.31 525.477 1208.71 526.33 1207.94 527.361C1207.17 528.375 1206.06 529.285 1204.63 530.089C1203.2 530.878 1201.29 531.273 1198.91 531.273ZM1199.68 526.153C1201.97 526.153 1203.9 525.558 1205.48 524.366C1207.05 523.159 1208.25 521.493 1209.07 519.368C1209.9 517.227 1210.31 514.756 1210.31 511.955C1210.31 509.186 1209.9 506.763 1209.1 504.686C1208.29 502.593 1207.1 500.967 1205.52 499.808C1203.95 498.633 1202 498.045 1199.68 498.045C1197.27 498.045 1195.25 498.665 1193.64 499.905C1192.05 501.128 1190.85 502.795 1190.05 504.903C1189.26 506.996 1188.86 509.347 1188.86 511.955C1188.86 514.595 1189.26 516.993 1190.07 519.151C1190.89 521.292 1192.1 522.998 1193.69 524.27C1195.3 525.526 1197.3 526.153 1199.68 526.153Z" fill="#232220"/>
<rect width="625" height="82" transform="translate(624 546.5)" fill="#FFBD00"/>
<path d="M628.423 612.5V563.045H648.224C651.863 563.045 654.897 563.585 657.328 564.663C659.759 565.742 661.586 567.239 662.81 569.155C664.033 571.054 664.645 573.244 664.645 575.723C664.645 577.655 664.259 579.353 663.486 580.818C662.713 582.267 661.651 583.458 660.298 584.392C658.962 585.31 657.433 585.962 655.71 586.348V586.831C657.594 586.911 659.357 587.443 660.999 588.425C662.657 589.407 664.001 590.783 665.031 592.554C666.062 594.309 666.577 596.402 666.577 598.832C666.577 601.456 665.925 603.799 664.621 605.859C663.333 607.904 661.425 609.522 658.898 610.713C656.37 611.904 653.255 612.5 649.553 612.5H628.423ZM638.879 603.952H647.403C650.317 603.952 652.442 603.396 653.778 602.286C655.115 601.159 655.783 599.661 655.783 597.794C655.783 596.426 655.453 595.218 654.793 594.172C654.133 593.125 653.191 592.304 651.967 591.709C650.76 591.113 649.319 590.815 647.645 590.815H638.879V603.952ZM638.879 583.74H646.631C648.063 583.74 649.335 583.491 650.446 582.991C651.573 582.476 652.458 581.752 653.102 580.818C653.762 579.884 654.092 578.766 654.092 577.462C654.092 575.675 653.456 574.234 652.185 573.139C650.929 572.045 649.142 571.497 646.824 571.497H638.879V583.74ZM690.091 613.224C686.275 613.224 682.991 612.452 680.238 610.906C677.502 609.345 675.393 607.139 673.912 604.29C672.431 601.424 671.69 598.036 671.69 594.124C671.69 590.308 672.431 586.96 673.912 584.078C675.393 581.196 677.477 578.951 680.166 577.341C682.87 575.731 686.042 574.926 689.68 574.926C692.127 574.926 694.405 575.321 696.514 576.109C698.639 576.882 700.49 578.049 702.068 579.611C703.662 581.172 704.901 583.136 705.787 585.503C706.672 587.853 707.115 590.606 707.115 593.761V596.587H675.795V590.212H697.431C697.431 588.731 697.109 587.419 696.466 586.276C695.822 585.133 694.928 584.239 693.785 583.595C692.658 582.935 691.346 582.605 689.849 582.605C688.288 582.605 686.903 582.967 685.696 583.692C684.504 584.4 683.571 585.358 682.895 586.565C682.218 587.757 681.872 589.085 681.856 590.55V596.611C681.856 598.446 682.194 600.032 682.87 601.368C683.563 602.704 684.537 603.734 685.792 604.459C687.048 605.183 688.537 605.545 690.26 605.545C691.403 605.545 692.449 605.384 693.399 605.062C694.349 604.741 695.162 604.258 695.838 603.614C696.514 602.97 697.029 602.181 697.383 601.247L706.897 601.875C706.414 604.161 705.424 606.157 703.927 607.864C702.446 609.554 700.53 610.874 698.18 611.824C695.846 612.758 693.149 613.224 690.091 613.224ZM740.891 612.5L726.741 563.045H738.163L746.349 597.408H746.759L755.79 563.045H765.57L774.577 597.48H775.012L783.198 563.045H794.62L780.469 612.5H770.279L760.862 580.166H760.475L751.082 612.5H740.891ZM812.942 613.224C809.127 613.224 805.843 612.452 803.09 610.906C800.353 609.345 798.244 607.139 796.763 604.29C795.282 601.424 794.542 598.036 794.542 594.124C794.542 590.308 795.282 586.96 796.763 584.078C798.244 581.196 800.329 578.951 803.017 577.341C805.722 575.731 808.893 574.926 812.532 574.926C814.979 574.926 817.257 575.321 819.365 576.109C821.49 576.882 823.342 578.049 824.919 579.611C826.513 581.172 827.753 583.136 828.638 585.503C829.524 587.853 829.966 590.606 829.966 593.761V596.587H798.647V590.212H820.283C820.283 588.731 819.961 587.419 819.317 586.276C818.673 585.133 817.78 584.239 816.637 583.595C815.51 582.935 814.198 582.605 812.701 582.605C811.139 582.605 809.755 582.967 808.547 583.692C807.356 584.4 806.422 585.358 805.746 586.565C805.07 587.757 804.724 589.085 804.708 590.55V596.611C804.708 598.446 805.046 600.032 805.722 601.368C806.414 602.704 807.388 603.734 808.644 604.459C809.9 605.183 811.389 605.545 813.111 605.545C814.254 605.545 815.301 605.384 816.25 605.062C817.2 604.741 818.013 604.258 818.689 603.614C819.365 602.97 819.881 602.181 820.235 601.247L829.749 601.875C829.266 604.161 828.276 606.157 826.779 607.864C825.298 609.554 823.382 610.874 821.032 611.824C818.697 612.758 816.001 613.224 812.942 613.224ZM846.966 563.045V612.5H836.679V563.045H846.966ZM871.965 613.224C868.166 613.224 864.898 612.42 862.161 610.81C859.441 609.184 857.348 606.93 855.883 604.048C854.434 601.167 853.71 597.85 853.71 594.099C853.71 590.3 854.442 586.968 855.907 584.102C857.388 581.221 859.489 578.975 862.21 577.365C864.93 575.739 868.166 574.926 871.917 574.926C875.153 574.926 877.986 575.514 880.417 576.689C882.848 577.864 884.772 579.514 886.188 581.639C887.605 583.764 888.386 586.259 888.531 589.125H878.823C878.549 587.274 877.825 585.785 876.65 584.658C875.491 583.515 873.969 582.943 872.086 582.943C870.492 582.943 869.1 583.378 867.908 584.247C866.733 585.1 865.816 586.348 865.156 587.99C864.496 589.632 864.165 591.62 864.165 593.955C864.165 596.321 864.487 598.333 865.131 599.991C865.791 601.65 866.717 602.913 867.908 603.783C869.1 604.652 870.492 605.087 872.086 605.087C873.261 605.087 874.316 604.845 875.249 604.362C876.199 603.879 876.98 603.179 877.592 602.261C878.219 601.328 878.63 600.209 878.823 598.905H888.531C888.37 601.738 887.597 604.233 886.212 606.391C884.844 608.532 882.952 610.206 880.538 611.413C878.123 612.621 875.265 613.224 871.965 613.224ZM911.875 613.224C908.124 613.224 904.881 612.428 902.144 610.834C899.423 609.224 897.322 606.986 895.841 604.121C894.36 601.239 893.62 597.899 893.62 594.099C893.62 590.268 894.36 586.92 895.841 584.054C897.322 581.172 899.423 578.935 902.144 577.341C904.881 575.731 908.124 574.926 911.875 574.926C915.626 574.926 918.862 575.731 921.583 577.341C924.319 578.935 926.428 581.172 927.909 584.054C929.391 586.92 930.131 590.268 930.131 594.099C930.131 597.899 929.391 601.239 927.909 604.121C926.428 606.986 924.319 609.224 921.583 610.834C918.862 612.428 915.626 613.224 911.875 613.224ZM911.924 605.256C913.63 605.256 915.055 604.773 916.198 603.807C917.341 602.825 918.202 601.489 918.782 599.798C919.377 598.108 919.675 596.184 919.675 594.027C919.675 591.87 919.377 589.946 918.782 588.256C918.202 586.565 917.341 585.229 916.198 584.247C915.055 583.265 913.63 582.774 911.924 582.774C910.201 582.774 908.752 583.265 907.577 584.247C906.418 585.229 905.541 586.565 904.945 588.256C904.365 589.946 904.076 591.87 904.076 594.027C904.076 596.184 904.365 598.108 904.945 599.798C905.541 601.489 906.418 602.825 907.577 603.807C908.752 604.773 910.201 605.256 911.924 605.256ZM936.82 612.5V575.409H946.624V581.953H947.059C947.831 579.78 949.119 578.065 950.922 576.81C952.725 575.554 954.882 574.926 957.394 574.926C959.937 574.926 962.103 575.562 963.89 576.834C965.676 578.089 966.868 579.796 967.463 581.953H967.85C968.606 579.828 969.975 578.13 971.955 576.858C973.951 575.57 976.31 574.926 979.03 574.926C982.491 574.926 985.301 576.029 987.458 578.234C989.631 580.424 990.718 583.531 990.718 587.555V612.5H980.455V589.584C980.455 587.523 979.908 585.978 978.813 584.947C977.718 583.917 976.35 583.402 974.708 583.402C972.84 583.402 971.383 583.998 970.337 585.189C969.291 586.364 968.767 587.918 968.767 589.849V612.5H958.794V589.366C958.794 587.547 958.271 586.098 957.225 585.02C956.194 583.941 954.834 583.402 953.144 583.402C952.001 583.402 950.971 583.692 950.053 584.271C949.151 584.835 948.435 585.632 947.904 586.662C947.373 587.676 947.107 588.867 947.107 590.236V612.5H936.82ZM1015.75 613.224C1011.93 613.224 1008.65 612.452 1005.89 610.906C1003.16 609.345 1001.05 607.139 999.568 604.29C998.087 601.424 997.346 598.036 997.346 594.124C997.346 590.308 998.087 586.96 999.568 584.078C1001.05 581.196 1003.13 578.951 1005.82 577.341C1008.53 575.731 1011.7 574.926 1015.34 574.926C1017.78 574.926 1020.06 575.321 1022.17 576.109C1024.3 576.882 1026.15 578.049 1027.72 579.611C1029.32 581.172 1030.56 583.136 1031.44 585.503C1032.33 587.853 1032.77 590.606 1032.77 593.761V596.587H1001.45V590.212H1023.09C1023.09 588.731 1022.77 587.419 1022.12 586.276C1021.48 585.133 1020.58 584.239 1019.44 583.595C1018.31 582.935 1017 582.605 1015.51 582.605C1013.94 582.605 1012.56 582.967 1011.35 583.692C1010.16 584.4 1009.23 585.358 1008.55 586.565C1007.87 587.757 1007.53 589.085 1007.51 590.55V596.611C1007.51 598.446 1007.85 600.032 1008.53 601.368C1009.22 602.704 1010.19 603.734 1011.45 604.459C1012.7 605.183 1014.19 605.545 1015.92 605.545C1017.06 605.545 1018.11 605.384 1019.06 605.062C1020 604.741 1020.82 604.258 1021.49 603.614C1022.17 602.97 1022.69 602.181 1023.04 601.247L1032.55 601.875C1032.07 604.161 1031.08 606.157 1029.58 607.864C1028.1 609.554 1026.19 610.874 1023.84 611.824C1021.5 612.758 1018.81 613.224 1015.75 613.224ZM1066.55 612.5L1052.4 563.045H1063.82L1072 597.408H1072.42L1081.45 563.045H1091.23L1100.23 597.48H1100.67L1108.85 563.045H1120.28L1106.13 612.5H1095.94L1086.52 580.166H1086.13L1076.74 612.5H1066.55ZM1138.45 613.224C1134.7 613.224 1131.46 612.428 1128.72 610.834C1126 609.224 1123.9 606.986 1122.42 604.121C1120.94 601.239 1120.2 597.899 1120.2 594.099C1120.2 590.268 1120.94 586.92 1122.42 584.054C1123.9 581.172 1126 578.935 1128.72 577.341C1131.46 575.731 1134.7 574.926 1138.45 574.926C1142.2 574.926 1145.44 575.731 1148.16 577.341C1150.9 578.935 1153.01 581.172 1154.49 584.054C1155.97 586.92 1156.71 590.268 1156.71 594.099C1156.71 597.899 1155.97 601.239 1154.49 604.121C1153.01 606.986 1150.9 609.224 1148.16 610.834C1145.44 612.428 1142.2 613.224 1138.45 613.224ZM1138.5 605.256C1140.21 605.256 1141.63 604.773 1142.78 603.807C1143.92 602.825 1144.78 601.489 1145.36 599.798C1145.96 598.108 1146.25 596.184 1146.25 594.027C1146.25 591.87 1145.96 589.946 1145.36 588.256C1144.78 586.565 1143.92 585.229 1142.78 584.247C1141.63 583.265 1140.21 582.774 1138.5 582.774C1136.78 582.774 1135.33 583.265 1134.16 584.247C1133 585.229 1132.12 586.565 1131.52 588.256C1130.94 589.946 1130.65 591.87 1130.65 594.027C1130.65 596.184 1130.94 598.108 1131.52 599.798C1132.12 601.489 1133 602.825 1134.16 603.807C1135.33 604.773 1136.78 605.256 1138.5 605.256ZM1163.4 612.5V575.409H1173.37V581.881H1173.76C1174.43 579.579 1175.57 577.84 1177.16 576.665C1178.76 575.473 1180.59 574.878 1182.67 574.878C1183.18 574.878 1183.74 574.91 1184.33 574.974C1184.93 575.039 1185.45 575.127 1185.9 575.24V584.368C1185.42 584.223 1184.75 584.094 1183.9 583.982C1183.05 583.869 1182.27 583.812 1181.56 583.812C1180.04 583.812 1178.69 584.143 1177.5 584.803C1176.33 585.446 1175.39 586.348 1174.7 587.507C1174.02 588.666 1173.69 590.002 1173.69 591.516V612.5H1163.4ZM1201.51 563.045V612.5H1191.22V563.045H1201.51ZM1223.42 613.104C1220.6 613.104 1218.05 612.379 1215.76 610.93C1213.49 609.465 1211.69 607.316 1210.35 604.483C1209.03 601.634 1208.37 598.14 1208.37 594.003C1208.37 589.753 1209.06 586.219 1210.43 583.402C1211.79 580.569 1213.61 578.452 1215.88 577.051C1218.17 575.634 1220.67 574.926 1223.39 574.926C1225.47 574.926 1227.2 575.28 1228.58 575.989C1229.99 576.681 1231.11 577.55 1231.97 578.597C1232.83 579.627 1233.49 580.641 1233.95 581.639H1234.26V563.045H1244.52V612.5H1234.38V606.56H1233.95C1233.46 607.59 1232.78 608.612 1231.89 609.626C1231.02 610.625 1229.89 611.454 1228.49 612.114C1227.1 612.774 1225.41 613.104 1223.42 613.104ZM1226.68 604.918C1228.34 604.918 1229.74 604.467 1230.88 603.565C1232.04 602.648 1232.92 601.368 1233.54 599.726C1234.16 598.084 1234.48 596.16 1234.48 593.955C1234.48 591.749 1234.17 589.833 1233.56 588.207C1232.95 586.581 1232.06 585.326 1230.9 584.44C1229.74 583.555 1228.34 583.112 1226.68 583.112C1224.99 583.112 1223.56 583.571 1222.4 584.489C1221.24 585.406 1220.37 586.678 1219.77 588.304C1219.18 589.93 1218.88 591.813 1218.88 593.955C1218.88 596.112 1219.18 598.019 1219.77 599.678C1220.38 601.32 1221.26 602.607 1222.4 603.541C1223.56 604.459 1224.99 604.918 1226.68 604.918Z" fill="#10100E"/>
<rect x="476" y="347" width="921" height="317" stroke="#44423D" stroke-width="8" stroke-dasharray="60 60"/>
<g filter="url(#filter0_d_286_44)">
<path fill-rule="evenodd" clip-rule="evenodd" d="M1420.31 728L1427.5 724.13L1433.73 720.894L1423.82 702.313H1440.54L1396.64 658.301V720.087L1409.43 707.661L1420.31 728Z" fill="#E8E5DD"/>
</g>
<path fill-rule="evenodd" clip-rule="evenodd" d="M1421.41 722.317L1428.21 718.686L1417.51 698.619H1431.41L1400.45 667.589V710.752L1410.21 701.33L1421.41 722.317Z" fill="#10100E"/>
</g>
<defs>
<filter id="filter0_d_286_44" x="1394.64" y="657.301" width="47.9004" height="73.6986" filterUnits="userSpaceOnUse" color-interpolation-filters="sRGB">
<feFlood flood-opacity="0" result="BackgroundImageFix"/>
<feColorMatrix in="SourceAlpha" type="matrix" values="0 0 0 0 0 0 0 0 0 0 0 0 0 0 0 0 0 0 127 0" result="hardAlpha"/>
<feOffset dy="1"/>
<feGaussianBlur stdDeviation="1"/>
<feColorMatrix type="matrix" values="0 0 0 0 0 0 0 0 0 0 0 0 0 0 0 0 0 0 0.4 0"/>
<feBlend mode="normal" in2="BackgroundImageFix" result="effect1_dropShadow_286_44"/>
<feBlend mode="normal" in="SourceGraphic" in2="effect1_dropShadow_286_44" result="shape"/>
</filter>
<clipPath id="clip0_286_44">
<rect width="1920" height="1080" fill="white"/>
</clipPath>
</defs>
</svg>
