<svg width="1400" height="350" viewBox="0 0 1400 350" fill="none" xmlns="http://www.w3.org/2000/svg">
<g clip-path="url(#clip0_14_2)">
<rect width="1400" height="350" fill="#E8E5DD"/>
<path fill-rule="evenodd" clip-rule="evenodd" d="M1325 290C1322.24 290 1320 292.239 1320 295V325C1320 327.761 1322.24 330 1325 330H1355C1357.76 330 1360 327.761 1360 325V295C1360 292.239 1357.76 290 1355 290H1325ZM1345.01 306.586C1345.01 308.953 1347.98 309.993 1349.46 308.152C1349.8 307.738 1350.38 307.675 1350.8 307.989C1353.81 310.156 1355.59 314.039 1354.82 318.135C1354.3 320.941 1352.55 323.334 1350.18 324.775C1351.06 323.497 1351.46 321.893 1351.15 320.19C1350.92 318.899 1350.22 317.747 1349.3 316.833L1345.88 313.463C1345.39 312.987 1344.62 312.987 1344.13 313.463L1340.74 316.807C1339.79 317.734 1339.09 318.912 1338.85 320.215C1338.71 321.012 1338.72 321.83 1338.89 322.622C1339.07 323.414 1339.4 324.162 1339.87 324.825C1336.95 323.083 1335 319.889 1335 316.231C1335 309.93 1340.15 305.571 1343.07 303.617C1343.89 303.066 1345.01 303.667 1345.01 304.669V306.586ZM1342.47 318.611L1345.01 316.106L1347.54 318.624C1348.13 319.188 1348.57 319.914 1348.71 320.716C1349.08 323.008 1347.28 325 1345.01 325C1342.73 325 1340.93 323.008 1341.3 320.703C1341.44 319.902 1341.89 319.188 1342.47 318.611Z" fill="#10100E"/>
<path d="M-10.3271 128L64.2778 192.389H101.58L156.757 128L206.493 158.255L281.098 138.085L273.327 249.796H323.064L337.829 321.943L303.635 401.847L372.8 431.327L400 635.355H253.122L233.693 685.004H126.449L76.712 650.094L-37.5268 702.071L-74.8292 664.834V567.862L-112.132 515.886L-74.8292 431.327V346.768L-137 321.943V192.389L-10.3271 128Z" stroke="#8B8982" stroke-opacity="0.2" stroke-width="3"/>
<path d="M-1.05746 147.717L68.3275 206.888H104.13L155.539 147.953L201.927 176.382L270.918 158.389L263.868 262.133L310.346 262.376L324.087 329.813L292.635 404.41L355.878 431.622L380.383 619.955L244.081 620.016L225.424 665.907L125.493 666.335L79.4296 633.957L-26.1744 681.782L-60.6075 647.011V557.099L-95.0405 507.301L-60.8622 429.144L-61.1168 350.988L-118.505 327.539V207.418L-1.05746 147.717Z" stroke="#8B8982" stroke-opacity="0.2" stroke-width="3"/>
<path d="M8.21218 167.434L72.3772 221.387H106.679L154.322 167.907L197.362 194.51L260.737 178.694L254.41 274.471L297.628 274.956L310.345 337.683L281.634 406.974L338.955 431.918L360.767 604.557L235.04 604.678L217.155 646.81L124.538 647.666L82.1471 617.821L-14.8221 661.494L-46.3857 629.188V546.337L-77.9493 498.717L-46.895 426.962L-47.4044 355.208L-100.01 333.136V222.447L8.21218 167.434Z" stroke="#8B8982" stroke-opacity="0.2" stroke-width="3"/>
<path d="M17.4818 187.151L76.4269 235.886H109.228L153.104 187.86L192.796 212.637L250.556 198.999L244.951 286.808L284.91 287.536L296.602 345.552L270.633 409.537L322.032 432.213L341.15 589.158L225.999 589.339L208.886 627.713L123.582 628.997L84.8647 601.683L-3.46973 641.206L-32.1639 611.365V535.574L-60.8581 490.132L-32.928 424.78L-33.692 359.428L-81.5157 338.732V237.476L17.4818 187.151Z" stroke="#8B8982" stroke-opacity="0.2" stroke-width="3"/>
<path d="M26.7514 206.867L80.4767 250.384H111.777L151.886 207.813L188.23 230.764L240.376 219.303L235.492 299.145L272.192 300.115L282.86 353.422L259.633 412.099L305.11 432.508L321.533 573.758L216.958 574.001L200.617 608.616L122.627 610.328L87.5823 585.546L7.88267 620.917L-17.9421 593.541V524.811L-43.7669 481.547L-18.9608 422.597L-19.9796 363.648L-63.0209 344.329V252.505L26.7514 206.867Z" stroke="#8B8982" stroke-opacity="0.2" stroke-width="3"/>
<path d="M36.021 226.585L84.5263 264.884H114.326L150.669 227.766L183.663 248.891L230.195 239.608L226.033 311.482L259.474 312.695L269.118 361.292L248.632 414.663L288.187 432.804L301.917 558.36L207.917 558.663L192.347 589.52L121.671 591.659L90.2998 569.41L19.235 600.629L-3.72037 575.718V514.048L-26.6757 472.963L-4.99378 420.415L-6.26719 367.868L-44.5261 349.925V267.534L36.021 226.585Z" stroke="#8B8982" stroke-opacity="0.2" stroke-width="3"/>
<path d="M45.2906 246.301L88.576 279.382H116.875L149.451 247.719L179.097 267.018L220.014 259.912L216.575 323.819L246.756 325.275L255.375 369.162L237.632 417.226L271.264 433.099L282.3 542.96L198.876 543.324L184.078 570.423L120.715 572.99L93.0174 553.273L30.5873 580.341L10.5014 557.895V503.285L-9.58456 464.378L8.97329 418.233L7.44519 372.088L-26.0314 355.522V282.562L45.2906 246.301Z" stroke="#8B8982" stroke-opacity="0.2" stroke-width="3"/>
<path d="M54.5602 266.018L92.6256 293.881H119.425L148.233 267.672L174.531 285.145L209.834 280.216L207.116 336.156L234.038 337.855L241.633 377.031L226.631 419.789L254.341 433.394L262.683 527.561L189.835 527.986L175.809 551.326L119.76 554.321L95.7349 537.136L41.9396 560.052L24.7231 540.072V492.522L7.50655 455.793L22.9403 416.05L21.1575 376.308L-7.53668 361.118V297.591L54.5602 266.018Z" stroke="#8B8982" stroke-opacity="0.2" stroke-width="3"/>
<path d="M63.8298 285.735L96.6753 308.38H121.974L147.016 287.625L169.965 303.272L199.653 300.521L197.657 348.493L221.32 350.434L227.89 384.901L215.63 422.351L237.419 433.69L243.067 512.162L180.794 512.647L167.54 532.229L118.804 535.651L98.4524 520.998L53.2919 539.763L38.9448 522.249V481.759L24.5977 447.208L36.9074 413.868L34.8699 380.528L10.9581 366.714V312.62L63.8298 285.735Z" stroke="#8B8982" stroke-opacity="0.2" stroke-width="3"/>
<path d="M73.0994 305.452L100.725 322.879H124.523L145.798 307.579L165.399 321.399L189.472 320.826L188.198 360.831L208.602 363.015L214.148 392.771L204.63 424.915L220.496 433.985L223.45 496.763L171.753 497.309L159.271 513.132L117.849 516.983L101.17 504.862L64.6443 519.475L53.1666 504.426V470.996L41.6889 438.624L50.8745 411.686L48.5823 384.748L29.4529 372.311V327.649L73.0994 305.452Z" stroke="#8B8982" stroke-opacity="0.2" stroke-width="3"/>
<path d="M82.369 325.169L104.775 337.378H127.072L144.58 327.532L160.833 339.526L179.292 341.13L178.74 373.168L195.884 375.594L200.406 400.641L193.629 427.478L203.573 434.281L203.833 481.364L162.712 481.971L151.002 494.035L116.893 498.313L103.888 488.725L75.9966 499.187L67.3884 486.602V460.233L58.7801 430.039L64.8416 409.504L62.2947 388.968L47.9476 377.907V342.678L82.369 325.169Z" stroke="#8B8982" stroke-opacity="0.2" stroke-width="3"/>
<path d="M91.6386 344.886L108.824 351.876H129.621L143.363 347.485L156.267 357.653L169.111 361.434L169.281 385.505L183.166 388.174L186.663 408.51L182.628 430.041L186.651 434.576L184.217 465.965L153.671 466.632L142.732 474.938L115.938 479.644L106.605 472.588L87.349 478.898L81.6101 468.779V449.47L75.8713 421.454L78.8086 407.321L76.0071 393.188L66.4424 383.503V357.707L91.6386 344.886Z" stroke="#8B8982" stroke-opacity="0.2" stroke-width="3"/>
<path d="M552.963 144V116.364H561.937C563.61 116.364 565.022 116.661 566.174 117.254C567.325 117.848 568.198 118.68 568.792 119.751C569.394 120.821 569.696 122.067 569.696 123.489C569.696 124.604 569.516 125.594 569.156 126.457C568.796 127.321 568.292 128.036 567.645 128.603C567.006 129.161 566.255 129.548 565.391 129.763V129.925C566.345 129.997 567.231 130.33 568.05 130.924C568.868 131.509 569.525 132.305 570.02 133.312C570.523 134.32 570.775 135.494 570.775 136.835C570.775 138.247 570.469 139.493 569.858 140.572C569.255 141.643 568.351 142.484 567.145 143.096C565.94 143.699 564.447 144 562.665 144H552.963ZM554.65 142.435H562.665C564.743 142.435 566.34 141.913 567.456 140.869C568.58 139.826 569.143 138.481 569.143 136.835C569.143 135.674 568.868 134.635 568.319 133.717C567.78 132.8 567.028 132.076 566.066 131.545C565.103 131.005 563.988 130.735 562.719 130.735H554.65V142.435ZM554.65 129.197H562.517C563.695 129.197 564.694 128.94 565.513 128.428C566.34 127.915 566.97 127.227 567.402 126.363C567.843 125.499 568.063 124.541 568.063 123.489C568.063 121.779 567.532 120.425 566.471 119.427C565.409 118.428 563.898 117.929 561.937 117.929H554.65V129.197ZM583.211 144.432C581.34 144.432 579.711 143.969 578.326 143.042C576.94 142.115 575.87 140.847 575.114 139.237C574.359 137.626 573.981 135.791 573.981 133.731C573.981 131.662 574.359 129.817 575.114 128.198C575.879 126.579 576.927 125.301 578.258 124.366C579.59 123.43 581.11 122.962 582.819 122.962C583.98 122.962 585.078 123.196 586.112 123.664C587.156 124.123 588.073 124.789 588.865 125.661C589.666 126.534 590.291 127.586 590.741 128.819C591.199 130.051 591.429 131.437 591.429 132.975V134.001H575.02V132.503H589.783C589.783 131 589.477 129.647 588.865 128.441C588.253 127.236 587.421 126.277 586.368 125.567C585.316 124.856 584.133 124.501 582.819 124.501C581.443 124.501 580.215 124.888 579.136 125.661C578.065 126.426 577.215 127.46 576.585 128.765C575.964 130.069 575.64 131.527 575.613 133.137V133.812C575.613 135.539 575.915 137.091 576.518 138.467C577.129 139.835 578.002 140.919 579.136 141.719C580.269 142.511 581.627 142.907 583.211 142.907C584.344 142.907 585.311 142.718 586.112 142.34C586.922 141.953 587.583 141.486 588.096 140.937C588.609 140.388 588.995 139.857 589.256 139.344L590.754 139.952C590.439 140.644 589.949 141.337 589.283 142.03C588.627 142.714 587.79 143.285 586.773 143.744C585.766 144.202 584.578 144.432 583.211 144.432ZM609.532 144L601.935 116.364H603.689L610.436 141.396H610.598L617.238 116.364H619.289L625.928 141.396H626.09L632.837 116.364H634.578L626.98 144H625.037L618.331 119.13H618.182L611.475 144H609.532ZM643.43 144.432C641.559 144.432 639.931 143.969 638.545 143.042C637.16 142.115 636.089 140.847 635.334 139.237C634.578 137.626 634.2 135.791 634.2 133.731C634.2 131.662 634.578 129.817 635.334 128.198C636.098 126.579 637.147 125.301 638.478 124.366C639.809 123.43 641.33 122.962 643.039 122.962C644.2 122.962 645.297 123.196 646.332 123.664C647.375 124.123 648.293 124.789 649.085 125.661C649.885 126.534 650.51 127.586 650.96 128.819C651.419 130.051 651.648 131.437 651.648 132.975V134.001H635.239V132.503H650.002C650.002 131 649.696 129.647 649.085 128.441C648.473 127.236 647.641 126.277 646.588 125.567C645.536 124.856 644.353 124.501 643.039 124.501C641.663 124.501 640.435 124.888 639.355 125.661C638.285 126.426 637.434 127.46 636.805 128.765C636.184 130.069 635.86 131.527 635.833 133.137V133.812C635.833 135.539 636.134 137.091 636.737 138.467C637.349 139.835 638.222 140.919 639.355 141.719C640.489 142.511 641.847 142.907 643.43 142.907C644.564 142.907 645.531 142.718 646.332 142.34C647.141 141.953 647.803 141.486 648.315 140.937C648.828 140.388 649.215 139.857 649.476 139.344L650.974 139.952C650.659 140.644 650.169 141.337 649.503 142.03C648.846 142.714 648.009 143.285 646.993 143.744C645.985 144.202 644.798 144.432 643.43 144.432ZM657.252 116.364V144H655.606V116.364H657.252ZM670.13 144.432C668.366 144.432 666.815 143.969 665.474 143.042C664.134 142.106 663.086 140.829 662.33 139.21C661.583 137.59 661.21 135.755 661.21 133.704C661.21 131.653 661.588 129.817 662.344 128.198C663.099 126.579 664.147 125.301 665.488 124.366C666.828 123.43 668.371 122.962 670.116 122.962C671.43 122.962 672.626 123.232 673.706 123.772C674.794 124.312 675.694 125.063 676.405 126.026C677.124 126.988 677.583 128.104 677.781 129.372H676.108C675.838 127.969 675.163 126.808 674.084 125.891C673.013 124.964 671.695 124.501 670.13 124.501C668.726 124.501 667.476 124.897 666.378 125.688C665.281 126.471 664.417 127.555 663.787 128.94C663.158 130.317 662.843 131.896 662.843 133.677C662.843 135.431 663.149 137.005 663.76 138.4C664.372 139.785 665.227 140.883 666.324 141.692C667.422 142.502 668.69 142.907 670.13 142.907C671.146 142.907 672.073 142.705 672.91 142.3C673.755 141.895 674.461 141.319 675.028 140.572C675.595 139.826 675.968 138.953 676.148 137.955H677.821C677.624 139.232 677.174 140.357 676.472 141.328C675.77 142.3 674.875 143.06 673.787 143.609C672.698 144.157 671.479 144.432 670.13 144.432ZM689.43 144.432C687.721 144.432 686.201 143.973 684.869 143.055C683.538 142.129 682.49 140.856 681.725 139.237C680.96 137.617 680.578 135.773 680.578 133.704C680.578 131.626 680.96 129.781 681.725 128.171C682.49 126.552 683.538 125.279 684.869 124.352C686.201 123.426 687.721 122.962 689.43 122.962C691.14 122.962 692.66 123.426 693.991 124.352C695.323 125.279 696.371 126.552 697.136 128.171C697.9 129.79 698.283 131.635 698.283 133.704C698.283 135.773 697.9 137.617 697.136 139.237C696.371 140.856 695.323 142.129 693.991 143.055C692.66 143.973 691.14 144.432 689.43 144.432ZM689.43 142.907C690.879 142.907 692.143 142.498 693.222 141.679C694.311 140.86 695.152 139.754 695.746 138.359C696.348 136.965 696.65 135.413 696.65 133.704C696.65 131.995 696.348 130.447 695.746 129.062C695.143 127.667 694.302 126.561 693.222 125.742C692.143 124.915 690.879 124.501 689.43 124.501C687.982 124.501 686.718 124.915 685.638 125.742C684.559 126.561 683.718 127.667 683.115 129.062C682.512 130.447 682.211 131.995 682.211 133.704C682.211 135.413 682.508 136.965 683.102 138.359C683.704 139.754 684.545 140.86 685.625 141.679C686.714 142.498 687.982 142.907 689.43 142.907ZM702.244 144V123.273H703.849V126.403H704.011C704.407 125.36 705.091 124.532 706.063 123.92C707.034 123.309 708.204 123.003 709.571 123.003C711.073 123.003 712.283 123.363 713.201 124.082C714.128 124.802 714.793 125.778 715.198 127.011H715.347C715.751 125.796 716.476 124.825 717.519 124.096C718.572 123.367 719.867 123.003 721.406 123.003C723.412 123.003 724.941 123.637 725.994 124.906C727.055 126.165 727.586 127.892 727.586 130.087V144H725.94V130.087C725.94 128.36 725.526 127.002 724.698 126.012C723.871 125.022 722.656 124.528 721.055 124.528C719.345 124.528 718.032 125.063 717.114 126.134C716.197 127.204 715.738 128.567 715.738 130.222V144H714.092V129.979C714.092 128.369 713.687 127.06 712.877 126.053C712.068 125.036 710.853 124.528 709.234 124.528C708.136 124.528 707.187 124.78 706.386 125.283C705.595 125.787 704.978 126.48 704.538 127.362C704.106 128.243 703.89 129.255 703.89 130.398V144H702.244ZM740.791 144.432C738.919 144.432 737.291 143.969 735.906 143.042C734.52 142.115 733.45 140.847 732.694 139.237C731.938 137.626 731.56 135.791 731.56 133.731C731.56 131.662 731.938 129.817 732.694 128.198C733.459 126.579 734.507 125.301 735.838 124.366C737.17 123.43 738.69 122.962 740.399 122.962C741.56 122.962 742.657 123.196 743.692 123.664C744.735 124.123 745.653 124.789 746.445 125.661C747.245 126.534 747.871 127.586 748.32 128.819C748.779 130.051 749.009 131.437 749.009 132.975V134.001H732.6V132.503H747.362C747.362 131 747.056 129.647 746.445 128.441C745.833 127.236 745.001 126.277 743.948 125.567C742.896 124.856 741.713 124.501 740.399 124.501C739.023 124.501 737.795 124.888 736.715 125.661C735.645 126.426 734.795 127.46 734.165 128.765C733.544 130.069 733.22 131.527 733.193 133.137V133.812C733.193 135.539 733.495 137.091 734.097 138.467C734.709 139.835 735.582 140.919 736.715 141.719C737.849 142.511 739.207 142.907 740.791 142.907C741.924 142.907 742.891 142.718 743.692 142.34C744.501 141.953 745.163 141.486 745.675 140.937C746.188 140.388 746.575 139.857 746.836 139.344L748.334 139.952C748.019 140.644 747.529 141.337 746.863 142.03C746.206 142.714 745.37 143.285 744.353 143.744C743.345 144.202 742.158 144.432 740.791 144.432ZM767.112 144L759.515 116.364H761.269L768.016 141.396H768.178L774.817 116.364H776.868L783.508 141.396H783.67L790.417 116.364H792.157L784.56 144H782.617L775.91 119.13H775.762L769.055 144H767.112ZM800.632 144.432C798.923 144.432 797.403 143.973 796.071 143.055C794.74 142.129 793.692 140.856 792.927 139.237C792.162 137.617 791.78 135.773 791.78 133.704C791.78 131.626 792.162 129.781 792.927 128.171C793.692 126.552 794.74 125.279 796.071 124.352C797.403 123.426 798.923 122.962 800.632 122.962C802.342 122.962 803.862 123.426 805.193 124.352C806.525 125.279 807.573 126.552 808.338 128.171C809.102 129.79 809.485 131.635 809.485 133.704C809.485 135.773 809.102 137.617 808.338 139.237C807.573 140.856 806.525 142.129 805.193 143.055C803.862 143.973 802.342 144.432 800.632 144.432ZM800.632 142.907C802.081 142.907 803.345 142.498 804.424 141.679C805.513 140.86 806.354 139.754 806.948 138.359C807.55 136.965 807.852 135.413 807.852 133.704C807.852 131.995 807.55 130.447 806.948 129.062C806.345 127.667 805.504 126.561 804.424 125.742C803.345 124.915 802.081 124.501 800.632 124.501C799.184 124.501 797.92 124.915 796.84 125.742C795.761 126.561 794.92 127.667 794.317 129.062C793.714 130.447 793.413 131.995 793.413 133.704C793.413 135.413 793.71 136.965 794.303 138.359C794.906 139.754 795.747 140.86 796.827 141.679C797.915 142.498 799.184 142.907 800.632 142.907ZM813.446 144V123.273H815.051V126.511H815.2C815.65 125.45 816.41 124.6 817.48 123.961C818.551 123.313 819.77 122.989 821.137 122.989C821.281 122.989 821.425 122.989 821.569 122.989C821.713 122.989 821.848 122.994 821.974 123.003V124.663C821.866 124.654 821.736 124.64 821.583 124.622C821.439 124.595 821.259 124.582 821.043 124.582C819.891 124.582 818.866 124.829 817.966 125.324C817.076 125.819 816.374 126.502 815.861 127.375C815.348 128.239 815.092 129.228 815.092 130.344V144H813.446ZM826.333 116.364V144H824.687V116.364H826.333ZM838.549 144.432C836.885 144.432 835.432 143.973 834.191 143.055C832.949 142.138 831.986 140.874 831.303 139.263C830.628 137.644 830.291 135.786 830.291 133.69C830.291 131.612 830.633 129.768 831.316 128.158C832.009 126.538 832.976 125.27 834.218 124.352C835.459 123.426 836.907 122.962 838.563 122.962C839.75 122.962 840.78 123.192 841.653 123.651C842.535 124.1 843.272 124.699 843.866 125.445C844.469 126.192 844.928 127.011 845.242 127.901H845.404V116.364H847.037V144H845.445V139.479H845.242C844.91 140.37 844.446 141.193 843.852 141.949C843.259 142.696 842.521 143.298 841.639 143.757C840.758 144.207 839.728 144.432 838.549 144.432ZM838.698 142.907C840.101 142.907 841.302 142.507 842.301 141.706C843.308 140.896 844.077 139.799 844.608 138.413C845.148 137.019 845.418 135.44 845.418 133.677C845.418 131.914 845.148 130.344 844.608 128.967C844.077 127.582 843.308 126.493 842.301 125.702C841.302 124.901 840.101 124.501 838.698 124.501C837.276 124.501 836.057 124.906 835.041 125.715C834.033 126.516 833.259 127.609 832.72 128.994C832.189 130.38 831.923 131.941 831.923 133.677C831.923 135.413 832.189 136.978 832.72 138.373C833.259 139.767 834.033 140.874 835.041 141.692C836.057 142.502 837.276 142.907 838.698 142.907Z" fill="#1D1C1A"/>
<path d="M543.847 190V162.364H553.509C555.434 162.364 557.022 162.696 558.272 163.362C559.523 164.019 560.454 164.905 561.066 166.021C561.677 167.127 561.983 168.355 561.983 169.705C561.983 170.892 561.772 171.873 561.349 172.646C560.935 173.42 560.386 174.032 559.703 174.482C559.028 174.931 558.295 175.264 557.503 175.48V175.75C558.349 175.804 559.199 176.101 560.053 176.641C560.908 177.18 561.623 177.954 562.199 178.962C562.775 179.969 563.063 181.202 563.063 182.659C563.063 184.045 562.748 185.29 562.118 186.397C561.488 187.504 560.494 188.381 559.136 189.028C557.777 189.676 556.01 190 553.833 190H543.847ZM547.193 187.031H553.833C556.019 187.031 557.571 186.608 558.488 185.763C559.415 184.908 559.878 183.874 559.878 182.659C559.878 181.723 559.64 180.86 559.163 180.068C558.686 179.268 558.007 178.629 557.125 178.152C556.244 177.666 555.2 177.423 553.995 177.423H547.193V187.031ZM547.193 174.509H553.401C554.408 174.509 555.317 174.311 556.127 173.915C556.945 173.519 557.593 172.961 558.07 172.241C558.556 171.522 558.798 170.676 558.798 169.705C558.798 168.49 558.376 167.46 557.53 166.614C556.684 165.76 555.344 165.332 553.509 165.332H547.193V174.509ZM575.68 190.432C573.683 190.432 571.96 189.991 570.512 189.109C569.072 188.219 567.961 186.977 567.179 185.385C566.405 183.784 566.018 181.921 566.018 179.798C566.018 177.675 566.405 175.804 567.179 174.185C567.961 172.556 569.05 171.288 570.444 170.379C571.848 169.462 573.485 169.003 575.356 169.003C576.436 169.003 577.502 169.183 578.554 169.543C579.607 169.902 580.565 170.487 581.429 171.297C582.292 172.098 582.981 173.159 583.493 174.482C584.006 175.804 584.263 177.432 584.263 179.366V180.716H568.285V177.963H581.024C581.024 176.794 580.79 175.75 580.322 174.832C579.863 173.915 579.207 173.191 578.352 172.66C577.506 172.129 576.508 171.864 575.356 171.864C574.088 171.864 572.99 172.179 572.064 172.808C571.146 173.429 570.44 174.239 569.945 175.237C569.45 176.236 569.203 177.306 569.203 178.449V180.284C569.203 181.849 569.473 183.176 570.013 184.265C570.561 185.344 571.321 186.168 572.293 186.734C573.265 187.292 574.394 187.571 575.68 187.571C576.517 187.571 577.272 187.454 577.947 187.22C578.631 186.977 579.22 186.617 579.715 186.141C580.21 185.655 580.592 185.052 580.862 184.332L583.939 185.196C583.615 186.24 583.071 187.157 582.306 187.949C581.541 188.732 580.597 189.343 579.472 189.784C578.348 190.216 577.084 190.432 575.68 190.432ZM602.966 190L595.409 162.364H598.81L604.586 184.872H604.855L610.739 162.364H614.517L620.401 184.872H620.671L626.446 162.364H629.847L622.29 190H618.836L612.736 167.977H612.52L606.421 190H602.966ZM639.205 190.432C637.208 190.432 635.486 189.991 634.037 189.109C632.598 188.219 631.487 186.977 630.704 185.385C629.93 183.784 629.544 181.921 629.544 179.798C629.544 177.675 629.93 175.804 630.704 174.185C631.487 172.556 632.575 171.288 633.97 170.379C635.373 169.462 637.01 169.003 638.882 169.003C639.961 169.003 641.027 169.183 642.08 169.543C643.132 169.902 644.09 170.487 644.954 171.297C645.818 172.098 646.506 173.159 647.019 174.482C647.531 175.804 647.788 177.432 647.788 179.366V180.716H631.811V177.963H644.549C644.549 176.794 644.315 175.75 643.848 174.832C643.389 173.915 642.732 173.191 641.877 172.66C641.032 172.129 640.033 171.864 638.882 171.864C637.613 171.864 636.516 172.179 635.589 172.808C634.671 173.429 633.965 174.239 633.47 175.237C632.976 176.236 632.728 177.306 632.728 178.449V180.284C632.728 181.849 632.998 183.176 633.538 184.265C634.087 185.344 634.847 186.168 635.818 186.734C636.79 187.292 637.919 187.571 639.205 187.571C640.042 187.571 640.798 187.454 641.473 187.22C642.156 186.977 642.745 186.617 643.24 186.141C643.735 185.655 644.117 185.052 644.387 184.332L647.464 185.196C647.14 186.24 646.596 187.157 645.831 187.949C645.067 188.732 644.122 189.343 642.997 189.784C641.873 190.216 640.609 190.432 639.205 190.432ZM654.677 162.364V190H651.492V162.364H654.677ZM667.79 190.432C665.847 190.432 664.174 189.973 662.77 189.055C661.367 188.138 660.288 186.874 659.532 185.263C658.776 183.653 658.398 181.813 658.398 179.744C658.398 177.639 658.785 175.781 659.559 174.171C660.341 172.552 661.43 171.288 662.824 170.379C664.228 169.462 665.865 169.003 667.736 169.003C669.194 169.003 670.507 169.273 671.677 169.812C672.846 170.352 673.804 171.108 674.551 172.08C675.298 173.051 675.761 174.185 675.941 175.48H672.756C672.513 174.536 671.974 173.699 671.137 172.97C670.309 172.232 669.194 171.864 667.79 171.864C666.549 171.864 665.46 172.187 664.525 172.835C663.598 173.474 662.874 174.378 662.352 175.548C661.839 176.708 661.583 178.071 661.583 179.636C661.583 181.238 661.835 182.632 662.339 183.82C662.851 185.007 663.571 185.929 664.498 186.586C665.433 187.243 666.531 187.571 667.79 187.571C668.618 187.571 669.369 187.427 670.044 187.139C670.719 186.851 671.29 186.438 671.758 185.898C672.225 185.358 672.558 184.71 672.756 183.955H675.941C675.761 185.178 675.316 186.28 674.605 187.261C673.903 188.232 672.972 189.006 671.812 189.582C670.66 190.148 669.32 190.432 667.79 190.432ZM687.877 190.432C686.006 190.432 684.364 189.987 682.951 189.096C681.548 188.205 680.451 186.959 679.659 185.358C678.876 183.757 678.485 181.885 678.485 179.744C678.485 177.585 678.876 175.701 679.659 174.09C680.451 172.48 681.548 171.229 682.951 170.339C684.364 169.448 686.006 169.003 687.877 169.003C689.748 169.003 691.385 169.448 692.789 170.339C694.201 171.229 695.299 172.48 696.081 174.09C696.873 175.701 697.269 177.585 697.269 179.744C697.269 181.885 696.873 183.757 696.081 185.358C695.299 186.959 694.201 188.205 692.789 189.096C691.385 189.987 689.748 190.432 687.877 190.432ZM687.877 187.571C689.298 187.571 690.468 187.207 691.385 186.478C692.303 185.749 692.982 184.791 693.423 183.604C693.864 182.416 694.084 181.13 694.084 179.744C694.084 178.359 693.864 177.068 693.423 175.871C692.982 174.675 692.303 173.708 691.385 172.97C690.468 172.232 689.298 171.864 687.877 171.864C686.456 171.864 685.286 172.232 684.368 172.97C683.451 173.708 682.772 174.675 682.331 175.871C681.89 177.068 681.67 178.359 681.67 179.744C681.67 181.13 681.89 182.416 682.331 183.604C682.772 184.791 683.451 185.749 684.368 186.478C685.286 187.207 686.456 187.571 687.877 187.571ZM700.99 190V169.273H704.067V172.511H704.337C704.769 171.405 705.466 170.546 706.428 169.934C707.391 169.313 708.547 169.003 709.897 169.003C711.264 169.003 712.402 169.313 713.311 169.934C714.228 170.546 714.943 171.405 715.456 172.511H715.672C716.203 171.441 716.999 170.591 718.061 169.961C719.122 169.322 720.395 169.003 721.879 169.003C723.733 169.003 725.249 169.583 726.427 170.744C727.606 171.895 728.195 173.69 728.195 176.128V190H725.01V176.128C725.01 174.598 724.592 173.505 723.755 172.849C722.919 172.192 721.933 171.864 720.8 171.864C719.343 171.864 718.214 172.304 717.413 173.186C716.612 174.059 716.212 175.165 716.212 176.506V190H712.973V175.804C712.973 174.625 712.591 173.676 711.826 172.957C711.062 172.228 710.076 171.864 708.871 171.864C708.043 171.864 707.27 172.084 706.55 172.525C705.839 172.966 705.263 173.577 704.823 174.36C704.391 175.134 704.175 176.029 704.175 177.045V190H700.99ZM741.568 190.432C739.571 190.432 737.848 189.991 736.4 189.109C734.96 188.219 733.849 186.977 733.067 185.385C732.293 183.784 731.906 181.921 731.906 179.798C731.906 177.675 732.293 175.804 733.067 174.185C733.849 172.556 734.938 171.288 736.332 170.379C737.736 169.462 739.373 169.003 741.244 169.003C742.324 169.003 743.39 169.183 744.442 169.543C745.495 169.902 746.453 170.487 747.317 171.297C748.18 172.098 748.868 173.159 749.381 174.482C749.894 175.804 750.15 177.432 750.15 179.366V180.716H734.173V177.963H746.912C746.912 176.794 746.678 175.75 746.21 174.832C745.751 173.915 745.094 173.191 744.24 172.66C743.394 172.129 742.396 171.864 741.244 171.864C739.976 171.864 738.878 172.179 737.951 172.808C737.034 173.429 736.328 174.239 735.833 175.237C735.338 176.236 735.091 177.306 735.091 178.449V180.284C735.091 181.849 735.361 183.176 735.9 184.265C736.449 185.344 737.209 186.168 738.181 186.734C739.152 187.292 740.282 187.571 741.568 187.571C742.405 187.571 743.16 187.454 743.835 187.22C744.519 186.977 745.108 186.617 745.603 186.141C746.098 185.655 746.48 185.052 746.75 184.332L749.826 185.196C749.503 186.24 748.958 187.157 748.194 187.949C747.429 188.732 746.484 189.343 745.36 189.784C744.235 190.216 742.971 190.432 741.568 190.432ZM768.854 190L761.297 162.364H764.698L770.473 184.872H770.743L776.627 162.364H780.405L786.289 184.872H786.559L792.334 162.364H795.735L788.178 190H784.723L778.624 167.977H778.408L772.309 190H768.854ZM804.823 190.432C802.952 190.432 801.31 189.987 799.898 189.096C798.495 188.205 797.397 186.959 796.605 185.358C795.823 183.757 795.431 181.885 795.431 179.744C795.431 177.585 795.823 175.701 796.605 174.09C797.397 172.48 798.495 171.229 799.898 170.339C801.31 169.448 802.952 169.003 804.823 169.003C806.695 169.003 808.332 169.448 809.735 170.339C811.148 171.229 812.245 172.48 813.028 174.09C813.82 175.701 814.215 177.585 814.215 179.744C814.215 181.885 813.82 183.757 813.028 185.358C812.245 186.959 811.148 188.205 809.735 189.096C808.332 189.987 806.695 190.432 804.823 190.432ZM804.823 187.571C806.245 187.571 807.414 187.207 808.332 186.478C809.25 185.749 809.929 184.791 810.37 183.604C810.81 182.416 811.031 181.13 811.031 179.744C811.031 178.359 810.81 177.068 810.37 175.871C809.929 174.675 809.25 173.708 808.332 172.97C807.414 172.232 806.245 171.864 804.823 171.864C803.402 171.864 802.232 172.232 801.315 172.97C800.397 173.708 799.718 174.675 799.277 175.871C798.836 177.068 798.616 178.359 798.616 179.744C798.616 181.13 798.836 182.416 799.277 183.604C799.718 184.791 800.397 185.749 801.315 186.478C802.232 187.207 803.402 187.571 804.823 187.571ZM817.937 190V169.273H821.013V172.403H821.229C821.607 171.378 822.291 170.546 823.28 169.907C824.27 169.268 825.386 168.949 826.627 168.949C826.861 168.949 827.153 168.953 827.504 168.962C827.855 168.971 828.12 168.985 828.3 169.003V172.241C828.192 172.214 827.945 172.174 827.558 172.12C827.18 172.057 826.78 172.026 826.357 172.026C825.35 172.026 824.45 172.237 823.658 172.66C822.876 173.074 822.255 173.649 821.796 174.387C821.346 175.116 821.121 175.948 821.121 176.884V190H817.937ZM834.12 162.364V190H830.935V162.364H834.12ZM846.64 190.432C844.912 190.432 843.388 189.996 842.065 189.123C840.743 188.241 839.708 187 838.961 185.398C838.215 183.788 837.841 181.885 837.841 179.69C837.841 177.513 838.215 175.624 838.961 174.023C839.708 172.421 840.747 171.184 842.079 170.312C843.41 169.439 844.948 169.003 846.694 169.003C848.043 169.003 849.109 169.228 849.892 169.678C850.684 170.118 851.286 170.622 851.7 171.189C852.123 171.747 852.451 172.205 852.685 172.565H852.955V162.364H856.14V190H853.063V186.815H852.685C852.451 187.193 852.118 187.67 851.687 188.246C851.255 188.812 850.639 189.321 849.838 189.771C849.037 190.211 847.971 190.432 846.64 190.432ZM847.072 187.571C848.349 187.571 849.429 187.238 850.31 186.572C851.192 185.898 851.862 184.967 852.321 183.779C852.78 182.583 853.009 181.202 853.009 179.636C853.009 178.089 852.784 176.735 852.334 175.575C851.885 174.405 851.219 173.496 850.337 172.849C849.456 172.192 848.367 171.864 847.072 171.864C845.722 171.864 844.598 172.21 843.698 172.903C842.807 173.586 842.137 174.518 841.687 175.696C841.247 176.866 841.026 178.179 841.026 179.636C841.026 181.112 841.251 182.452 841.701 183.658C842.16 184.854 842.834 185.808 843.725 186.518C844.625 187.22 845.74 187.571 847.072 187.571Z" fill="#232220"/>
<rect width="350" height="46" transform="translate(525 199)" fill="#FFBD00"/>
<path d="M527.839 236V208.364H538.905C540.938 208.364 542.634 208.665 543.992 209.268C545.351 209.871 546.372 210.707 547.055 211.778C547.739 212.839 548.081 214.063 548.081 215.448C548.081 216.528 547.865 217.477 547.433 218.295C547.001 219.105 546.408 219.771 545.652 220.293C544.905 220.805 544.051 221.17 543.088 221.386V221.656C544.141 221.701 545.126 221.997 546.043 222.546C546.97 223.095 547.721 223.864 548.297 224.854C548.873 225.834 549.161 227.004 549.161 228.362C549.161 229.829 548.796 231.138 548.067 232.289C547.348 233.432 546.282 234.336 544.869 235.001C543.457 235.667 541.716 236 539.647 236H527.839ZM533.683 231.223H538.446C540.074 231.223 541.262 230.913 542.009 230.292C542.755 229.662 543.129 228.826 543.129 227.782C543.129 227.017 542.944 226.343 542.575 225.758C542.206 225.173 541.68 224.714 540.996 224.381C540.322 224.049 539.517 223.882 538.581 223.882H533.683V231.223ZM533.683 219.928H538.014C538.815 219.928 539.526 219.789 540.146 219.51C540.776 219.222 541.271 218.817 541.631 218.295C542 217.774 542.184 217.148 542.184 216.42C542.184 215.421 541.829 214.616 541.118 214.004C540.416 213.393 539.418 213.087 538.122 213.087H533.683V219.928ZM562.301 236.405C560.169 236.405 558.333 235.973 556.795 235.109C555.266 234.237 554.087 233.004 553.259 231.412C552.432 229.811 552.018 227.917 552.018 225.731C552.018 223.599 552.432 221.728 553.259 220.117C554.087 218.507 555.252 217.252 556.754 216.352C558.266 215.453 560.038 215.003 562.071 215.003C563.439 215.003 564.712 215.223 565.89 215.664C567.078 216.096 568.112 216.748 568.994 217.621C569.884 218.493 570.577 219.591 571.072 220.913C571.567 222.227 571.814 223.765 571.814 225.528V227.107H554.312V223.545H566.403C566.403 222.717 566.223 221.984 565.863 221.345C565.503 220.706 565.004 220.207 564.365 219.847C563.735 219.478 563.002 219.294 562.166 219.294C561.293 219.294 560.519 219.496 559.845 219.901C559.179 220.297 558.657 220.832 558.279 221.507C557.901 222.173 557.708 222.915 557.699 223.734V227.121C557.699 228.146 557.888 229.032 558.266 229.779C558.653 230.526 559.197 231.102 559.899 231.506C560.6 231.911 561.432 232.114 562.395 232.114C563.034 232.114 563.619 232.024 564.149 231.844C564.68 231.664 565.134 231.394 565.512 231.034C565.89 230.674 566.178 230.233 566.376 229.712L571.693 230.062C571.423 231.34 570.869 232.455 570.033 233.409C569.205 234.354 568.135 235.091 566.821 235.622C565.517 236.144 564.01 236.405 562.301 236.405ZM590.689 236L582.782 208.364H589.164L593.739 227.566H593.968L599.015 208.364H604.48L609.514 227.607H609.757L614.331 208.364H620.714L612.806 236H607.112L601.849 217.931H601.633L596.384 236H590.689ZM630.953 236.405C628.821 236.405 626.986 235.973 625.447 235.109C623.918 234.237 622.739 233.004 621.912 231.412C621.084 229.811 620.67 227.917 620.67 225.731C620.67 223.599 621.084 221.728 621.912 220.117C622.739 218.507 623.904 217.252 625.407 216.352C626.918 215.453 628.69 215.003 630.724 215.003C632.091 215.003 633.364 215.223 634.542 215.664C635.73 216.096 636.765 216.748 637.646 217.621C638.537 218.493 639.229 219.591 639.724 220.913C640.219 222.227 640.466 223.765 640.466 225.528V227.107H622.964V223.545H635.055C635.055 222.717 634.875 221.984 634.515 221.345C634.156 220.706 633.656 220.207 633.018 219.847C632.388 219.478 631.655 219.294 630.818 219.294C629.945 219.294 629.172 219.496 628.497 219.901C627.831 220.297 627.309 220.832 626.932 221.507C626.554 222.173 626.36 222.915 626.351 223.734V227.121C626.351 228.146 626.54 229.032 626.918 229.779C627.305 230.526 627.849 231.102 628.551 231.506C629.253 231.911 630.085 232.114 631.047 232.114C631.686 232.114 632.271 232.024 632.802 231.844C633.332 231.664 633.787 231.394 634.165 231.034C634.542 230.674 634.83 230.233 635.028 229.712L640.345 230.062C640.075 231.34 639.522 232.455 638.685 233.409C637.858 234.354 636.787 235.091 635.474 235.622C634.169 236.144 632.662 236.405 630.953 236.405ZM649.966 208.364V236H644.218V208.364H649.966ZM663.936 236.405C661.813 236.405 659.987 235.955 658.458 235.055C656.937 234.147 655.768 232.887 654.949 231.277C654.14 229.667 653.735 227.813 653.735 225.717C653.735 223.594 654.144 221.732 654.963 220.131C655.79 218.52 656.964 217.265 658.485 216.366C660.005 215.457 661.813 215.003 663.909 215.003C665.718 215.003 667.301 215.331 668.659 215.988C670.018 216.645 671.093 217.567 671.885 218.754C672.676 219.942 673.113 221.336 673.194 222.938H667.769C667.616 221.903 667.211 221.071 666.554 220.441C665.907 219.802 665.056 219.483 664.004 219.483C663.113 219.483 662.335 219.726 661.669 220.212C661.013 220.688 660.5 221.386 660.131 222.303C659.762 223.221 659.578 224.332 659.578 225.636C659.578 226.959 659.758 228.083 660.118 229.01C660.486 229.937 661.004 230.643 661.669 231.129C662.335 231.614 663.113 231.857 664.004 231.857C664.661 231.857 665.25 231.722 665.772 231.452C666.302 231.183 666.739 230.791 667.081 230.278C667.431 229.757 667.661 229.131 667.769 228.403H673.194C673.104 229.986 672.672 231.38 671.898 232.586C671.133 233.782 670.076 234.718 668.727 235.393C667.377 236.067 665.781 236.405 663.936 236.405ZM686.239 236.405C684.143 236.405 682.33 235.96 680.801 235.069C679.281 234.169 678.107 232.919 677.279 231.317C676.451 229.707 676.037 227.84 676.037 225.717C676.037 223.576 676.451 221.705 677.279 220.104C678.107 218.493 679.281 217.243 680.801 216.352C682.33 215.453 684.143 215.003 686.239 215.003C688.335 215.003 690.144 215.453 691.664 216.352C693.193 217.243 694.372 218.493 695.199 220.104C696.027 221.705 696.441 223.576 696.441 225.717C696.441 227.84 696.027 229.707 695.199 231.317C694.372 232.919 693.193 234.169 691.664 235.069C690.144 235.96 688.335 236.405 686.239 236.405ZM686.266 231.952C687.22 231.952 688.016 231.682 688.655 231.142C689.293 230.593 689.775 229.847 690.099 228.902C690.431 227.957 690.598 226.882 690.598 225.677C690.598 224.471 690.431 223.396 690.099 222.452C689.775 221.507 689.293 220.76 688.655 220.212C688.016 219.663 687.22 219.388 686.266 219.388C685.304 219.388 684.494 219.663 683.837 220.212C683.189 220.76 682.699 221.507 682.366 222.452C682.042 223.396 681.881 224.471 681.881 225.677C681.881 226.882 682.042 227.957 682.366 228.902C682.699 229.847 683.189 230.593 683.837 231.142C684.494 231.682 685.304 231.952 686.266 231.952ZM700.179 236V215.273H705.657V218.93H705.9C706.332 217.715 707.052 216.757 708.059 216.055C709.067 215.354 710.273 215.003 711.676 215.003C713.097 215.003 714.307 215.358 715.306 216.069C716.305 216.771 716.97 217.724 717.303 218.93H717.519C717.942 217.742 718.706 216.793 719.813 216.082C720.929 215.363 722.247 215.003 723.767 215.003C725.701 215.003 727.271 215.619 728.476 216.852C729.691 218.075 730.298 219.811 730.298 222.06V236H724.563V223.194C724.563 222.042 724.257 221.179 723.645 220.603C723.034 220.027 722.269 219.739 721.351 219.739C720.308 219.739 719.494 220.072 718.909 220.738C718.324 221.395 718.032 222.263 718.032 223.342V236H712.459V223.072C712.459 222.056 712.166 221.246 711.581 220.643C711.006 220.041 710.246 219.739 709.301 219.739C708.662 219.739 708.086 219.901 707.574 220.225C707.07 220.54 706.67 220.985 706.373 221.561C706.076 222.128 705.927 222.794 705.927 223.558V236H700.179ZM744.285 236.405C742.153 236.405 740.318 235.973 738.779 235.109C737.25 234.237 736.071 233.004 735.244 231.412C734.416 229.811 734.002 227.917 734.002 225.731C734.002 223.599 734.416 221.728 735.244 220.117C736.071 218.507 737.236 217.252 738.739 216.352C740.25 215.453 742.022 215.003 744.056 215.003C745.423 215.003 746.696 215.223 747.874 215.664C749.062 216.096 750.097 216.748 750.978 217.621C751.869 218.493 752.561 219.591 753.056 220.913C753.551 222.227 753.798 223.765 753.798 225.528V227.107H736.296V223.545H748.387C748.387 222.717 748.207 221.984 747.847 221.345C747.488 220.706 746.988 220.207 746.35 219.847C745.72 219.478 744.987 219.294 744.15 219.294C743.277 219.294 742.504 219.496 741.829 219.901C741.163 220.297 740.642 220.832 740.264 221.507C739.886 222.173 739.692 222.915 739.683 223.734V227.121C739.683 228.146 739.872 229.032 740.25 229.779C740.637 230.526 741.181 231.102 741.883 231.506C742.585 231.911 743.417 232.114 744.379 232.114C745.018 232.114 745.603 232.024 746.134 231.844C746.664 231.664 747.119 231.394 747.497 231.034C747.874 230.674 748.162 230.233 748.36 229.712L753.677 230.062C753.407 231.34 752.854 232.455 752.017 233.409C751.19 234.354 750.119 235.091 748.806 235.622C747.501 236.144 745.994 236.405 744.285 236.405ZM772.674 236L764.766 208.364H771.149L775.723 227.566H775.953L781 208.364H786.465L791.498 227.607H791.741L796.316 208.364H802.699L794.791 236H789.096L783.833 217.931H783.618L778.368 236H772.674ZM812.856 236.405C810.76 236.405 808.948 235.96 807.418 235.069C805.898 234.169 804.724 232.919 803.896 231.317C803.068 229.707 802.655 227.84 802.655 225.717C802.655 223.576 803.068 221.705 803.896 220.104C804.724 218.493 805.898 217.243 807.418 216.352C808.948 215.453 810.76 215.003 812.856 215.003C814.952 215.003 816.761 215.453 818.281 216.352C819.81 217.243 820.989 218.493 821.817 220.104C822.644 221.705 823.058 223.576 823.058 225.717C823.058 227.84 822.644 229.707 821.817 231.317C820.989 232.919 819.81 234.169 818.281 235.069C816.761 235.96 814.952 236.405 812.856 236.405ZM812.883 231.952C813.837 231.952 814.633 231.682 815.272 231.142C815.911 230.593 816.392 229.847 816.716 228.902C817.049 227.957 817.215 226.882 817.215 225.677C817.215 224.471 817.049 223.396 816.716 222.452C816.392 221.507 815.911 220.76 815.272 220.212C814.633 219.663 813.837 219.388 812.883 219.388C811.921 219.388 811.111 219.663 810.454 220.212C809.807 220.76 809.316 221.507 808.983 222.452C808.66 223.396 808.498 224.471 808.498 225.677C808.498 226.882 808.66 227.957 808.983 228.902C809.316 229.847 809.807 230.593 810.454 231.142C811.111 231.682 811.921 231.952 812.883 231.952ZM826.796 236V215.273H832.369V218.889H832.585C832.963 217.603 833.597 216.631 834.488 215.974C835.378 215.309 836.404 214.976 837.564 214.976C837.852 214.976 838.163 214.994 838.496 215.03C838.828 215.066 839.121 215.115 839.373 215.178V220.279C839.103 220.198 838.729 220.126 838.253 220.063C837.776 220 837.34 219.969 836.944 219.969C836.098 219.969 835.342 220.153 834.677 220.522C834.02 220.882 833.498 221.386 833.111 222.033C832.733 222.681 832.545 223.428 832.545 224.273V236H826.796ZM848.093 208.364V236H842.345V208.364H848.093ZM860.336 236.337C858.762 236.337 857.336 235.933 856.058 235.123C854.79 234.304 853.782 233.103 853.036 231.52C852.298 229.928 851.929 227.975 851.929 225.663C851.929 223.288 852.311 221.314 853.076 219.739C853.841 218.156 854.857 216.973 856.126 216.19C857.403 215.399 858.802 215.003 860.323 215.003C861.483 215.003 862.45 215.201 863.224 215.597C864.007 215.983 864.636 216.469 865.113 217.054C865.599 217.63 865.968 218.196 866.22 218.754H866.395V208.364H872.13V236H866.463V232.68H866.22C865.95 233.256 865.567 233.827 865.073 234.394C864.587 234.952 863.953 235.415 863.17 235.784C862.396 236.153 861.452 236.337 860.336 236.337ZM862.158 231.763C863.084 231.763 863.867 231.511 864.506 231.007C865.154 230.494 865.648 229.779 865.99 228.862C866.341 227.944 866.517 226.869 866.517 225.636C866.517 224.404 866.346 223.333 866.004 222.425C865.662 221.516 865.167 220.814 864.519 220.32C863.872 219.825 863.084 219.577 862.158 219.577C861.213 219.577 860.417 219.834 859.769 220.347C859.122 220.859 858.631 221.57 858.298 222.479C857.966 223.387 857.799 224.44 857.799 225.636C857.799 226.842 857.966 227.908 858.298 228.835C858.64 229.752 859.131 230.472 859.769 230.994C860.417 231.506 861.213 231.763 862.158 231.763Z" fill="#10100E"/>
<rect x="438" y="86" width="524" height="180" stroke="#44423D" stroke-width="4" stroke-dasharray="20 20"/>
<g filter="url(#filter0_d_14_2)">
<path fill-rule="evenodd" clip-rule="evenodd" d="M975.483 302.692L979.576 300.488L983.124 298.645L977.482 288.064H987L962 263V298.185L969.285 291.109L975.483 302.692Z" fill="#E8E5DD"/>
</g>
<path fill-rule="evenodd" clip-rule="evenodd" d="M976.106 299.455L979.983 297.388L973.888 285.96H981.805L964.174 268.289V292.869L969.732 287.504L976.106 299.455Z" fill="#10100E"/>
</g>
<defs>
<filter id="filter0_d_14_2" x="960" y="262" width="29" height="43.6915" filterUnits="userSpaceOnUse" color-interpolation-filters="sRGB">
<feFlood flood-opacity="0" result="BackgroundImageFix"/>
<feColorMatrix in="SourceAlpha" type="matrix" values="0 0 0 0 0 0 0 0 0 0 0 0 0 0 0 0 0 0 127 0" result="hardAlpha"/>
<feOffset dy="1"/>
<feGaussianBlur stdDeviation="1"/>
<feColorMatrix type="matrix" values="0 0 0 0 0 0 0 0 0 0 0 0 0 0 0 0 0 0 0.4 0"/>
<feBlend mode="normal" in2="BackgroundImageFix" result="effect1_dropShadow_14_2"/>
<feBlend mode="normal" in="SourceGraphic" in2="effect1_dropShadow_14_2" result="shape"/>
</filter>
<clipPath id="clip0_14_2">
<rect width="1400" height="350" fill="white"/>
</clipPath>
</defs>
</svg>
